<?xml version="1.0" encoding="UTF-8"?>
<svg viewBox="0 0 744.09 1052.4" xmlns="http://www.w3.org/2000/svg" xmlns:xlink="http://www.w3.org/1999/xlink">
 <defs>
  <symbol id="a">
   <path d="m102.52 20.864c0.832 3.678 2.251 6.769 2.081 11.448-0.894 0.542-0.644 3.046-2.081 1.561 1.468 5.145-0.932 9.897-1.039 15.089-1.267-8.588-1.144-20.133 1.039-28.098zm-0.52 11.448c1.518 0.765 1.518-2.327 0-1.561v1.561z" fill="#41632f"/>
   <path d="m65.576 26.068c1.769 0.832 2.682 2.521 3.642 4.163-1.775-0.674-4.392-2.627-3.642-4.163z"/>
   <path d="m68.697 26.068c1.704 1.419 3.787 2.456 4.163 5.203-1.789-1.333-3.448-2.797-4.163-5.203z"/>
   <path d="m79.104 26.068c2.224 2.113 3.376 5.295 4.163 8.845-1.846-1.794-2.031-5.251-4.163-6.763-0.60899 0.083-0.438 0.948-0.52 1.56-2.177-1.364 0.438-1.792 0.52-3.642z"/>
   <path d="m62.454 27.628c1.822 0.952 3.478 2.073 4.163 4.163-2.034-0.742-3.421-2.13-4.163-4.163z"/>
   <path d="m58.811 28.669c2.232-1.347 3.768 2.462 4.685 4.163-2.366-0.586-3.152-2.748-4.685-4.163z"/>
   <path d="m56.73 29.189c2.168-0.261 2.497 1.319 2.603 3.123-2.183 0.273-2.063-1.754-2.603-3.123z"/>
   <path d="m102 30.75c1.518-0.766 1.518 2.326 0 1.561v-1.561z"/>
   <path d="m88.99 32.312c1.843 1.453 2.93 3.661 3.121 6.765-2.118-1.178-2.173-4.418-3.121-6.765z"/>
   <path d="m99.917 34.913c0.198-0.99 0.66 0.333 0.521 1.041-0.199 0.99-0.663-0.333-0.521-1.041z" fill="#41632f"/>
   <path d="m153.51 37.515c-1.147 1.281-1.453 3.406-3.645 3.643 0.845-1.585 1.216-3.642 3.645-3.643z"/>
   <path d="m140.5 38.035c0.64 0.228 1.066 0.666 1.04 1.562-1.438 2.334-3.982 3.708-5.725 5.724-4.938 5.715-9.185 11.942-16.131 15.609 6.73-7.841 14.842-14.3 20.816-22.895z"/>
   <path d="m155.59 39.076c-1.41 1.536-2.405 3.489-4.684 4.163 0.924-2.027 2.067-3.832 4.684-4.163z"/>
   <path d="m156.11 41.677c1.056 2.114-3.238 3.337-4.161 5.203-1.908-1.044 3.385-3.42 4.161-5.203z"/>
   <path d="m157.68 43.239c0.30899 2.23-4.745 6.342-6.246 6.764 1.669-2.67 4.548-4.126 6.246-6.764z"/>
   <path d="m122.29 44.279c0.562 0.128 0.351 1.034 1.039 1.041-1.749 5.882-4.084 11.178-9.364 13.528 3.028-4.603 6.568-8.693 8.325-14.569z"/>
   <path d="m115.53 44.799c-0.107 4.408-2.864 10.661-6.765 13.008 2.634-3.957 4.253-8.928 6.765-13.008z"/>
   <path d="m70.258 46.361c6.089 4.838 10.218 11.636 14.049 18.732-5.163-5.764-10.021-11.833-14.049-18.732z"/>
   <path d="m160.28 47.401c0.46199 3.591-5.225 5.521-7.804 7.804 1.947-3.254 5.128-5.278 7.804-7.804z"/>
   <path d="m82.226 48.442c3.182 2.89 4.442 7.699 6.766 11.447-2.803 0.050999-4.134-6.992-6.766-9.366v-2.081z"/>
   <path d="m160.28 51.043c0.61 0.084 0.44 0.948 0.521 1.562-4.33 1.611-6.958 7.553-10.928 7.805 3.249-3.344 7.13-6.055 10.407-9.367z"/>
   <path d="m137.9 54.166c0.933-0.147 1.069 0.491 0.521 0.52-3.186 5.14-7.31 9.34-14.048 10.927 4.601-3.723 10.461-6.188 13.527-11.447z"/>
   <path d="m159.75 55.206c0.364 2.688-3.176 3.921-5.202 5.724-2.108 1.877-3.989 4.484-6.244 5.724-0.351-3.132 5.774-4.28 6.763-7.805 2.003-0.775 3.547-2.005 4.683-3.643z"/>
   <path d="m64.535 56.767c5.417 3.082 8.535 8.462 12.486 13.008-5.52-2.112-6.89-8.374-11.968-10.927 0.069-0.932-0.635-1.098-0.518-2.081z"/>
   <path d="m113.97 60.41c-0.483 1.252-0.951 2.52-1.562 3.642 1.118 2.428 5.019 0.697 3.643-2.601 3.642 1.023 1.05 4.812-1.04 5.724-1.706-0.966-2.547-0.47601-4.162-2.082-1.017 5.421-4.414 10.579-4.684 15.089-1.408-3.327 0.879-7.44 2.081-9.886-1.68-1.278-5.989-6.187-1.561-7.286-0.099998 2.354-0.426 4.938 2.603 4.164-0.30801-1.603-0.135-3.683-2.083-3.643 0.42799-1.972 3.438-0.8 3.123 1.041 1.707-0.893 0.885-4.318 3.642-4.162z"/>
   <path d="m95.234 69.775c-1.292-0.324-1.005-1.156-1.561-3.122-1.978 0.474-0.381 2.091-0.521 3.643-1.84-2.15-3.884-4.095-6.243-5.724-0.24799-3.862 5.697-3.585 7.805-2.081-0.363 3.486-0.24799 4.327 0.52 7.284zm-6.764-5.724c0.838 1.069 2.608 1.207 4.683 1.042 0.405-3.543-3.601-2.671-4.683-1.042z"/>
   <path d="m93.153 65.093c-2.073 0.165-3.844 0.028-4.683-1.042 1.082-1.629 5.088-2.501 4.683 1.042z" fill="#ffff56"/>
   <path d="m64.535 66.653c2.746-1 5.687 2.282 7.283 4.163-2.217 0.473-4.903-3.065-7.283-4.163z"/>
   <path d="m97.836 66.653c2.521-0.515 3.996 1.87 3.123 3.122-2.358 0.275-3.398-0.765-3.123-3.122z" fill="#ffde00"/>
   <path d="m121.25 66.653c1.207-0.167 1.999 0.083 2.602 0.521-0.239 2.014-1.158 3.352-3.122 3.642-1.146-1.208 0.103-2.955 0.52-4.163z" fill="#ffff56"/>
   <path d="m100.96 80.702c-2.093-0.68301-2.499-3.052-3.123-5.203-3.341 2.89-5.864-0.98-8.847-1.562-0.759 1.037 1.708 3.372-0.52 4.684 0.78799 2.334 2.659 3.584 4.683 4.683-2.973 1.571-4.638-2.636-6.764-3.643 0.829 2.293 3.39 2.854 4.162 5.203-5.197-2.954-9.244-7.06-13.529-10.927 0-2.601 2.027-3.177 3.644-4.163 1.582 0.5 2.172 1.99 3.122 3.122 0.529 2.264-1.077 2.393-1.562 3.643 0.973-0.415 1.907-0.869 3.123-1.041-0.438 0.604-0.68699 1.395-0.521 2.602 6.051 0.501 1.474-5.579-0.521-6.245-0.277-3.226 3.545-2.351 5.204-3.643 1.146 0.764 2.437 1.38 2.082 3.643 1.551-0.18301 3.168-0.301 3.642-1.561 3.195 2.185 5.022 5.734 5.725 10.408zm-11.447-8.325c0.161-2.068-0.999-2.817-3.122-2.602-0.615 2.486 1.804 3.66 3.122 2.602zm-10.407 2.081c1.472-0.43 1.35 0.733 2.603 0.52 2.53-3.081-3.683-5.587-2.603-0.52zm13.529-2.081c-0.445 2.315 1.974 3.488 3.122 2.601 0.37701-1.591-0.897-1.529-0.521-3.122-1.254-0.21201-1.131 0.951-2.601 0.521z"/>
   <path d="m86.389 69.775c2.123-0.215 3.283 0.534 3.122 2.602-1.318 1.058-3.737-0.116-3.122-2.602z" fill="#ffff56"/>
   <path d="m81.706 74.978c-1.253 0.214-1.131-0.949-2.603-0.52-1.079-5.067 5.134-2.561 2.603 0.52z" fill="#ffff56"/>
   <path d="m95.234 71.856c-0.377 1.592 0.897 1.531 0.521 3.122-1.147 0.887-3.566-0.286-3.122-2.601 1.47 0.43 1.347-0.733 2.601-0.521z" fill="#ffff56"/>
   <path d="m121.77 71.856c2.812 0.922-0.161 4.085-1.562 4.163-2.276-0.88 1.114-2.802 1.562-4.163z" fill="#ffff56"/>
   <path d="m112.4 72.897c0.928 0.381 0.076004 0.946 0 1.562-0.928-0.383-0.073997-0.947 0-1.562z" fill="#ffde00"/>
   <path d="m132.18 76.54c-0.227 3.416-3.25 4.033-6.243 4.683-0.52-0.695-1.406-1.022-1.561-2.082-3.199 1.311-5.006 4.015-8.327 5.204 0.978-5.268 8.617-3.873 9.366-9.367 2.804-1.046 5.302-0.126 6.765 1.562zm-5.722 3.642c1.637 0.249 2.031-0.741 3.121-1.042 0.205-2.112-0.19101-3.625-2.079-3.642-2.076 1.577-0.573 3.107-1.042 4.684z"/>
   <path d="m127.5 75.499c1.888 0.016998 2.284 1.53 2.079 3.642-1.09 0.301-1.484 1.291-3.121 1.042 0.469-1.578-1.034-3.108 1.042-4.684z" fill="#ffff56"/>
   <path d="m90.031 78.101c1.536-1.501 3.123 1.36 3.122 3.121-2.084 0.002998-1.725-2.437-3.122-3.121z"/>
   <path d="m159.23 79.141c-1.142 1.59-3.333-0.6 0 0z"/>
   <path d="m101.48 81.743c2.521-0.090996 2.891 1.965 3.643 3.643-1.789-0.228-2.918 0.206-4.163 0.521 0.059998-1.501-0.285-3.407 0.52-4.164z" fill="#ffff56"/>
   <path d="m164.96 82.264c-4.642 2.147-11.293 0.871-17.171 2.601 3.968-3.187 12.247-3.088 17.171-2.601z"/>
   <path d="m99.397 85.385c-1.868-0.431-2.517 1.173-3.643 0-0.767-3.181 4.519-3.59 3.643 0z" fill="#ffff56"/>
   <path d="m123.33 83.304c0.464 0.229 0.932 0.456 1.042 1.041-0.36 1.938-2.572 4.068-4.685 2.601 0.257-2.17 1.883-2.975 3.643-3.642z" fill="#ffff56"/>
   <path d="m131.14 85.385v2.601c-2.133 0.224-3.335-0.481-4.684-1.041 0.439-1.567 2.935-2.929 4.684-1.56z" fill="#ffff56"/>
   <path d="m169.64 85.905c-4.314 0.647-13.821-1.081-18.213 1.041-0.58-1.647 2.648-1.303 4.163-1.561 4.124-0.7 10.091-0.459 14.05 0.52z"/>
   <path d="m73.9 86.946c0.049995 1.61-1.57 1.551-3.122 1.562v-2.081c0.84-0.889 2.683-0.477 3.122 0.519z" fill="#ffff56"/>
   <path d="m99.917 85.905c-0.653 3.254 1.668 3.536 2.081 5.724-1.687 0.396-2.124 2.039-2.081 4.163-1.854 0.119-2.722-0.749-2.604-2.602-0.137-1.698 1.62-1.504 2.082-2.602-1.451-1.257-3.535-4.766 0.522-4.683z" fill="#ffff56"/>
   <path d="m110.32 85.905c2.073-0.339 1.489 1.979 1.56 3.643-1.643-0.090996-1.41-2.058-1.56-3.643z" fill="#ffff56"/>
   <path d="m107.72 86.426c-0.406 2.368-2.413 3.134-3.121 5.203-1.619-0.809-2.509-2.347-2.602-4.684 1.679-1.355 3.86 0.839 5.723-0.519z" fill="#ffff56"/>
   <path d="m53.087 87.467c4.625 0.405 9.786 0.27399 11.968 3.122-2.091-0.337-4.295-0.562-5.723-1.562-2.275-0.327-5.48 0.277-6.245-1.56z"/>
   <path d="m170.16 89.027c-11.519-1.078-25.768 2.013-33.823 0 10.675-0.417 23.906-2.073 33.823 0z"/>
   <path d="m107.2 89.548c0.994 0.221 0.943 1.486 2.604 1.041 0.433 2.516-0.658 3.506-2.604 3.642-0.801-1.481-1.568-3.562 0-4.683z" fill="#ffff56"/>
   <path d="m169.12 92.149c-3.634 0.146-11.615-1.398-16.649 0 4.367-3.468 11.305-1.46 16.649 0z"/>
   <path d="m80.665 92.67c-0.017998 1.891-1.53 2.286-3.644 2.082-0.963-2.837 2.288-3.178 3.644-2.082z" fill="#ffff56"/>
   <path d="m106.16 94.23c-0.759 1.322-0.98801 3.172-3.123 3.123-3.451-3.109 0.813-7.372 3.123-3.123z" fill="#ffff56"/>
   <path d="m66.095 95.792c-6.598-0.765-15.244-0.694-23.414-1.562 2.979-2.685 7.681-0.379 11.967 0 4.002 0.354 9.037-0.945 11.447 1.562z"/>
   <path d="m117.09 93.71c0.555-1.181 3.271-0.198 4.684-0.52-0.555 1.181-3.271 0.199-4.684 0.52z" fill="#ffde00"/>
   <path d="m174.32 100.48c-2.26 1.219-3.837-1.455-6.245-2.084-3.29-0.856-7.072-0.308-11.446-0.521 3.562-4.165 9.85 0.817 14.569 0.521-2.771-3.668-10.781-4.213-16.133-3.642 1.018-1.589 4.104-1.685 6.246-1.561 3.047 0.176 8.771 1.873 10.406 3.125 0.228 0.168 0.248 1.312 0.52 1.558 0.377 0.339 2.412 1.393 2.083 2.604z"/>
   <path d="m108.76 94.751c1.329 0.057999 1.033 1.742 1.041 3.12-1.905 0.113-1.998 0.716-3.644 0-0.192-2.1 1.781-2.034 2.603-3.12z" fill="#ffff56"/>
   <path d="m132.18 95.792c0.22099 1.086-0.357 1.376-0.519 2.079-1.943 0.561-1.484-1.291-3.123-1.039 0.448-1.177 2.709-1.912 3.642-1.04z" fill="#ffff56"/>
   <path d="m97.315 97.354c1.85-0.963 6.22 0.013 6.244 2.603-2.31 0.887-5.62-0.234-6.244-2.603z" fill="#ffff56"/>
   <path d="m120.21 96.833c1.728-0.168 1.967 1.156 3.123 1.562 0.303 1.861-1.539 1.582-3.123 1.562 0.263-1.641-1.132-2.037 0-3.124z" fill="#ffff56"/>
   <path d="m82.226 99.434c-1.209 0.379-3.887 1.317-3.642-1.041 0.825-0.763 4.13-1.075 3.642 1.041z" fill="#ffff56"/>
   <path d="m31.754 100.48h-3.644c0.008999 1.549 3.856-0.734 3.122 1.559-3.212-0.26-4.089 1.076-6.763 0 0.864-1.152 2.81 0.102 1.56-2.079 2.006 0.663 5.121-2.1 5.725 0.52z"/>
   <path d="m173.28 104.12c-4.586-1.524-10.842-3.435-15.091-3.642 1.238-2.508 3.688-0.48 5.204 0 3.196 1.008 9.022 0.836 9.887 3.642z"/>
   <path d="m113.97 101.52c2.773-1.026 6.165 1.805 8.846 2.603 2.126-0.47601 2.748-2.456 5.202-2.603 1.684 1.67 2.515 3.312 1.039 5.724-2.422 0.667-5.812 0.639-5.723-2.601-3.878-0.284-6.387-1.937-9.364-3.123zm11.967 4.683c1.626 0.236 1.664-1.111 1.562-2.602h-1.562c-0.669 0.684-0.669 1.919 0 2.602z"/>
   <path d="m157.68 102.56c4.717 1.526 10.582 1.905 13.008 5.726-3.457-1.74-7.782-2.753-11.449-4.162-0.77699-0.303-1.811-0.046005-1.559-1.564z"/>
   <path d="m97.836 103.08c0.891 1.949-0.442 6.136-3.644 5.726 0.749-2.377 1.946-4.303 3.644-5.726z"/>
   <path d="m72.34 103.6c-8.874 2.586-19.965 5.687-27.578 7.803 1.183-2.196 4.264-1.951 6.244-2.6 5.821-1.91 12.449-5.649 21.334-5.203z"/>
   <path d="m78.063 103.6v2.08c-0.824 0.044998-1.984-0.25-2.081 0.521-1.856-1.017-0.412-3.094 2.081-2.601z" fill="#ffff56"/>
   <path d="m125.91 103.6h1.4943c0.09758 1.5405 0.059311 2.9361-1.4943 2.692-0.63998-0.70765-0.63998-1.9854 0-2.692z" fill="#ffff56"/>
   <path d="m31.754 104.12c-0.53 2.069-4.077 1.126-5.725 2.081 0.498-2.105 3.76-1.447 5.725-2.081z"/>
   <path d="m99.917 108.8c0.91-0.479 1.146-1.629 1.041-3.123 1.992 1.825-0.306 7.422-1.041 9.885 0.323 1.41 2.174 1.297 2.081 3.123 0.028 2.459-1.719 3.142-3.122 4.164-7.581-3.512 2.144-6.804 1.041-13.01-1.075 1.18-1.064 3.445-2.082 4.684-0.825-2.571 1.858-6.109 1.561-9.885 2.213-0.102 0.593 3.259 0.521 4.162zm-0.52 11.967c0.725-1.553 0.613-3.185-1.04-3.643-0.764 0.825-1.075 4.131 1.04 3.643z"/>
   <path d="m115.01 105.16c0.40401-1.03 3.354-0.281 3.123 1.042-1.799 0.412-2.197-0.578-3.123-1.042z" fill="#ffff56"/>
   <path d="m131.66 107.24c3.774 0.046005 8.828 3.307 11.444 6.245-4.413-1.484-7.819-3.972-11.444-6.245z"/>
   <path d="m31.233 107.76c-0.125 0.915-0.895 1.187-2.081 1.042-0.524-1.567 1.159-0.924 2.081-1.042z"/>
   <path d="m157.68 108.28c5.59 0.825 9.854 2.98 14.048 5.204-0.479 1.416-1.628-0.729-3.123 0 0.388 1.521 2.811 1.006 2.604 3.121-3.962-2.457-8.104-4.729-13.01-6.244 0.065002-0.934-0.638-1.099-0.519-2.081z"/>
   <path d="m93.673 109.32c2.428 0.881-1.328 1.309-0.521 3.642 2.706 0.449 2.169-2.342 3.122-3.642 2.676 2.074-0.396 6.225-4.163 5.201-1.437-1.944-0.045998-4.662 1.562-5.201z"/>
   <path d="m113.45 109.84c0.161 2.068-0.999 2.816-3.121 2.604 0.231-1.678 0.793-3.023 3.121-2.604z" fill="#ffff56"/>
   <path d="m81.185 112.44c-0.14899 1.695-3.946 1.309-4.163 0 0.48299-2.028 3.259-0.623 4.163 0z" fill="#ffff56"/>
   <path d="m71.819 111.92c1.081 0.293 1.103 0.813 0.521 1.562-5.956 0.982-9.862 4.016-15.61 5.203 3.649-3.635 10.152-4.418 15.089-6.765z"/>
   <path d="m87.43 114.52c-0.442 1.121-1.916 1.205-3.643 1.039-1.025-3.735 3.923-5.059 3.643-1.039z" fill="#ffff56"/>
   <path d="m120.73 114c-0.395 3.076-2.784 4.151-5.724 4.683-5.512-3.847 2.44-9.498 5.724-4.683zm-6.242 0.52c0.080002 3.219 4.232 2.039 4.162-0.521-1.253-1.188-3.148-0.086998-4.162 0.521z"/>
   <path d="m157.68 112.44c0.013-0.506 0.635-0.404 1.039-0.521 3.822 1.903 8.679 2.77 10.406 6.766-3.662-2.237-7.138-4.657-11.445-6.245z"/>
   <path d="m118.65 114c0.07 2.56-4.082 3.738-4.162 0.521 1.014-0.609 2.909-1.71 4.162-0.521z" fill="#ffff56"/>
   <path d="m156.63 114.52c2.9 2.129 6.654 3.404 8.325 6.766-1.795-0.6-3.277-2.05-4.685-3.123-1.222-0.932-3.546-1.659-3.64-3.643z"/>
   <path d="m30.713 116.6c0.768 1.646-2.99 2.502-2.603 0.521 1.256 0.211 1.133-0.951 2.603-0.521z"/>
   <path d="m151.95 116.6c3.417-0.010002 5.522 1.422 7.804 3.121 1.062 0.791 2.915 1.549 2.603 3.123-2.233-0.465-1.711-2.129-3.643-0.52-1.668-1.803-3.482-3.456-5.723-4.684-1.501 1.367 4.466 2.431 2.601 4.162-2.072-0.877-3.943-1.952-3.642-5.202z"/>
   <path d="m98.357 117.12c1.653 0.458 1.765 2.09 1.04 3.643-2.115 0.488-1.804-2.818-1.04-3.643z" fill="#ffff56"/>
   <path d="m154.55 122.85c-2.822-0.476-3.98-2.61-5.723-4.164 1.516-0.286 4.933 1.992 5.723 4.164z"/>
   <path d="m33.835 119.73c-1.588 1.017-5.422 1.969-7.284 1.041 1.379-1.225 5.874-1.517 7.284-1.041z"/>
   <path d="m145.19 120.25c0.442-1.524 1.675 0.312 2.603 0-0.38 1.795-1.568 0.347-2.603 0z"/>
   <path d="m85.349 121.29c0.872 4.347-3.134 8.309-4.164 12.486-0.843-4.318 2.268-9.175 4.164-12.486z"/>
   <path d="m26.03 122.85h5.203c-0.357 1.423-5.894 2.216-5.203 0z"/>
   <path d="m107.2 122.85c2.069 3.187 4.184 8.928 4.164 12.488-2.453-3.097-3.564-7.539-4.164-12.488z"/>
   <path d="m90.031 123.37c2.359 1.985-0.711 5.371-1.561 8.325-0.821 2.855-0.117 7.541-3.122 8.324 1.395-5.716 2.158-12.063 4.683-16.649z"/>
   <path d="m34.875 125.97c-3.083-0.166-6.604 1.523-8.847 0.521 2.19-0.471 8.196-3.482 8.847-0.521z"/>
   <path d="m101.48 124.41c1.263 0.651 2.214 3.803 2.601 6.246 0.437 2.747 1.023 7.405-1.042 7.805-0.31-3.435-1.125-9.19-1.559-14.051z"/>
   <path d="m39.038 134.3c1.093-2.549 6.191-1.092 7.286-3.642-3.514-0.55699-7.725 2.677-13.009 2.078 4.486-2.621 11.733-2.484 16.65-4.683 1.582 1.117-1.833 1.597-2.081 2.604 4.675 0.301 10.131-5.779 15.61-4.684-1.278 1.844-5.382 0.863-5.725 3.643-4.503 0.871-9.172 1.58-11.968 4.162-0.929 0.14699-1.068-0.49101-0.521-0.52101-0.802-0.43001-4.331 0.85199-6.242 1.043z"/>
   <path d="m38.519 127.01c-2.569 1.501-9.007 1.636-11.448 1.562 2.256-1.818 8.899-1.741 11.448-1.562z"/>
   <path d="m44.241 127.53c-1.379 2.416-5.019 1.483-7.805 2.082-2.025 0.43401-3.84 1.782-5.724 1.56 2.384-3.34 9.349-2.098 13.529-3.642z"/>
   <path d="m61.933 129.09c0.609 0.085007 0.439 0.949 0.521 1.562-7.267 1.059-11.655 4.994-19.772 5.201 5.863-2.806 13.444-3.896 19.251-6.763z"/>
   <path d="m137.38 138.46c4.758 3.223 10.411 5.545 12.487 11.445-5.784-2.193-9.23-6.724-12.487-11.445z" fill="#41632f"/>
   <path d="m52.567 145.74c-0.671 1.931-2.026 3.176-3.643 4.162 1.002-1.598 0.885-4.32 3.643-4.162z" fill="#41632f"/>
   <path d="m129.05 145.74c1.326 0.063004 2.021 0.75801 2.084 2.083-1.326-0.064011-2.02-0.75801-2.084-2.083z"/>
   <path d="m130.1 151.47c0.694-1.334 3.35 1.319 2.081 2.081-1.221-0.16701-1.164-1.61-2.081-2.081z"/>
   <path d="m127.5 152.51c1.797 0.627 2.814 2.036 3.12 4.162-1.494-0.933-2.583-2.275-3.12-4.162z"/>
   <path d="m68.177 154.07c2.354 0.345-0.147 3.72-1.561 3.646-0.132-1.866 1.563-1.909 1.561-3.646z"/>
   <path d="m70.258 155.11c2.128 1.267-1.284 5.521-2.601 6.765-0.056-3.179 1.823-4.421 2.601-6.765z"/>
   <path d="m126.46 155.11c1.936 1.186 2.229 4.015 3.642 5.726-1.424 0.59201-4.418-4.083-3.642-5.726z"/>
   <path d="m124.89 158.75c1.267 2.896 3.224 5.104 4.162 8.325-2.703-1.198-4.619-5.66-4.162-8.325z"/>
   <path d="m70.779 159.27c2.563 1.09-1.2 4.16-1.041 6.246-1.85-2.225 0.798-4.387 1.041-6.246z"/>
   <path d="m122.81 160.31c1.528 2.978 2.845 6.174 4.162 9.367-2.502-1.74-4.979-6.016-4.162-9.367z"/>
   <path d="m119.69 160.83c2.14 1.932 3.771 6.87 4.162 8.846-2.049-2.287-3.482-5.191-4.162-8.846z"/>
   <path d="m72.86 161.36h1.562c-0.45599 1.797-0.905 3.604-2.081 4.681-0.231 0.985 0.70699 3.136-1.042 2.603-0.83501-3.784 1.68-4.219 1.561-7.284z"/>
   <path d="m107.72 161.87c2.062 0.366 0.58 4.278 1.562 5.724-2.29-0.005997-2.523-4.118-1.562-5.724z"/>
   <path d="m111.36 161.87c0.477 3 2.759 6.942 2.08 9.367-2.235-1.336-3.221-6.352-2.08-9.367z"/>
   <path d="m117.61 161.87c2.037 1.952 2.064 5.913 4.162 7.808-2.07 0.14601-4.088-4.232-4.162-7.808z"/>
   <path d="m75.462 163.96c1.93 0.605-0.749 4.977-0.521 7.286-2.272-1.707-0.139-5.355 0.521-7.286z"/>
   <path d="m115.01 163.96c1.718 0.32199 1.104 2.409 1.561 3.643 0.571 1.538 1.897 3.073 2.083 4.684-2.932-1.061-3.586-4.393-3.644-8.327z"/>
   <path d="m78.063 166.56c2.407 0.393 0.176 4.039 0 5.202-1.884-0.893-0.277-2.748 0-5.202z"/>
   <path d="m81.706 169.16c1.173 0.388 0.204 2.918 0.52 4.163-1.893-0.79701-1.393-2.611-0.52-4.163z"/>
   <path d="m106.68 21.385c1.519 1.218-2.382 1.399-1.561 3.642 4.157-1.859 4.579-7.01 6.762-10.406 3.888-6.043 10.934-13.892 20.294-14.569 12.405-0.896 17.189 10.217 23.415 18.211 7.941 1.251 15.172 3.215 20.814 6.764 3.042 5.587 4.215 11.535 3.642 18.212-0.97301 11.297-8.963 18.054-15.09 23.415 2.786 0.869 6.067-2.249 10.406-1.561-0.797 1.458-1.511 2.999-4.162 2.601-1.616 2.399-3.465 1.367-5.725 3.122 4.223 2.471 8.128-0.014 12.487 0.521 13.72 1.681 19.81 15.34 16.65 28.099-0.42 1.688-0.005005 3.888-0.521 5.203-1.802 4.604-6.369 6.53-9.886 10.404 2.086 4.941 4.354 9.857 3.644 15.612-1.971 15.922-22.083 22.631-36.944 14.569-0.326 0.146 3.847 3.521 1.042 4.681 1.17 1.084 2.68 1.829 2.602 4.161-1.34 1.19-2.945-0.51599-3.123-2.077-3.127-0.171-4.256-2.339-6.763-3.123 0.58301 10.47-3.524 22.635-9.888 28.618-2.478 2.328-6.962 5.05-9.366 5.723-8.229 2.311-17.272-4.122-26.536-0.52-1.303 0.506-2.286 1.678-3.644 2.08-5.027 1.498-11.58 0.912-16.13-1.039-5.299-2.274-11.938-7.52-15.089-10.929-5.764-6.237-8.591-17.056-5.203-28.618-0.663-1.168-5.329 2.11-2.602 2.603-3.536 1.294-5.147 6.194-9.366 5.205-1.318-1.966 1.697-3.291 2.082-5.205-5.817 0.647-13.22 1.591-20.293 0.521-10.417-1.574-18.062-6.293-22.375-13.009-2.304-6.825 3.714-13.916 3.123-18.733-0.527-4.279-6.562-7.393-8.326-10.924-3.146-6.31 1.501-15.414 4.162-20.293 1.745-3.198 4.484-8.774 7.286-10.407 1.773-1.034 4.438-0.91901 6.763-1.561 2.172-0.599 4.018-1.846 5.725-2.081 10.944-1.506 19.07 3.68 29.139 4.682-6.846-3.653-14.081-5.04-19.772-10.406-9.576-9.028-15.217-33.761-3.643-45.789 3.767-1.089 6.238-3.475 10.927-3.642 4.069-8.428 11.114-14.522 21.335-14.571 17.739-0.083 28.562 14.796 35.383 25.497 2.472-3.252 2.007-9.44 6.243-10.927v6.763c0.824-0.042999 1.986 0.251 2.082-0.519zm45.269 55.675c-3.097-0.666-2.584 2.273-4.685 2.602-4.811-0.651-10.718 2.572-14.05 0 5.848-3.542 11.695-2.715 16.651-5.724 3.17-1.922 5.231-6.013 8.324-8.325 1.181-0.881 2.905-1.177 4.163-2.082 2.815-2.022 4.532-5.715 8.326-6.244 5.764-6.217 10.946-21.161 4.682-30.18-5.636-3.729-13.299-5.432-21.332-6.763-5.76-7.125-9.425-19.922-21.854-18.211-20.256 2.785-29.311 32.836-29.14 56.715 0.578 0.984 0.665 2.458 1.042 3.643-1.613 2.764 0.85 3.466-1.042 6.765s-6.926 1.791-7.805-1.562c0.637-1.792 3.346-1.512 4.163-3.122-2.232-0.673-3.908-5.062 0-5.203-0.82 1.911-0.432 5.117 2.603 4.683 1.021-1.401-1.141-3.098-1.562-4.683 0.44-5.249-1.601-10.636-2.081-16.651-0.553-6.906 0.144-14.46-3.123-19.773-8.858-7.47-14.231-18.017-27.574-19.773-6.913-0.91-16.392 1.117-20.813 6.765-1.827 2.333-1.431 4.854-3.122 6.244-3.289 2.705-7.158 1.489-10.927 4.164-1.402 0.995-1.808 3.24-3.644 3.642-0.811 2.887-1.618 4.513-2.081 6.245-0.246 0.925 0.583 0.489 0.521 1.561-0.050999 0.864-1.47 2.058-1.562 3.122-0.778 9.115 2.083 15.649 4.685 20.813 2.661 5.287 5.762 9.108 10.406 11.968 3.721 2.291 7.211 2.268 11.447 3.643 6.583 2.136 12.348 6.523 18.731 9.366 0.018005-2.436 4.074-5.115 5.724-2.601-2.111-0.20499-3.626 0.189-3.642 2.081 1.001 0.731 2.093 1.374 3.642 1.561 1.438-0.125 0.555-2.568 1.562-3.122 2.184 0.769 1.185 2.012 0.52 3.643h2.603c0.154 1.368-2.02 0.409-1.562 2.081 1.088 0.3 1.485 1.29 3.122 1.041 1.831-1.178-1.674-2.289 0-3.122 2.707-0.452 0.976 3.535 3.123 3.642 0.043999 2.21 4.638-0.12799 4.682 2.081-1.868 4.057-7.378-1.998-8.846 0.521 0.928 1.846 4.599 0.95299 5.204 3.122-5.639-0.43201-8.991-3.152-9.367-8.846-4.941 1.924-8.305-2.926-11.968-0.52-6.214-3.376-14.713-7.072-22.374-7.286-4.739-2.562-12.546-3.374-19.252-2.601-4.111 0.473-7.3 2.984-10.927 3.122-5.553 7.278-11.864 13.802-10.926 27.574 1.926 5.831 8.658 7.047 8.846 13.529 0.073 2.562-2.099 5.509-2.603 8.324-0.486 2.728-0.654 8.206 0 9.366 3.545 6.271 13.716 10.455 22.896 11.446 17.392 1.88 29.753-6.792 37.983-15.088 0.792-4.412 3.872-6.533 5.203-10.408 0.040009-1.646-2.104-4.096 0-4.684 0.061996 1.498-0.282 3.406 0.521 4.162 2.069 0.31 2.568-3.64 4.163-2.078-1.375 3.822-4.941 7.049-6.766 9.885-0.71199 1.107-0.832 2.988-1.562 4.162-0.241 0.39099-1.281 0.188-1.56 0.521-0.439 0.52-0.10399 1.605-0.52099 2.081-1.568 1.792-4.146 2.884-5.723 4.685-1.185 5.694-4.289 7.773-4.685 12.486-0.34 4.049 1.12 7.732 2.081 10.406 2.147 5.973 4.18 8.128 7.805 11.447 5.1 4.671 11.677 10.507 21.333 9.886 4.561-0.29199 8.113-3.624 13.008-4.162 6.511-0.714 14.108 3.44 20.294 2.603 12.962-1.758 24.554-26.479 15.609-38.504-2.479-3.334-4.199-4.227-6.765-6.246-2.683-2.11-4.655-5.282-7.804-6.242-1.29-4.434-5.621-5.825-5.725-11.446 6.869 6.781 14.467 13.577 22.373 19.252 3.813 2.735 5.532 3.629 10.406 4.683 4.468 0.967 9.801 4.219 14.571 4.164 0.8-0.009995 1.886-0.77901 3.12-1.043 4.972-1.059 5.26-1.283 8.324-3.642 5.242-4.027 9.456-8.503 8.325-17.69-0.47501-3.863-4.84-10.32-4.684-10.928 0.272-1.044 2.431-0.888 4.163-2.082 4.222-2.906 7.101-6.898 7.806-12.486 1.226-9.734-1.833-20.197-7.285-23.416-5.298-3.128-15.886-3.828-22.373-2.601-3.66 0.692-7.688 4.54-11.447 2.081 5.483-0.762 8.771-3.718 11.967-6.765-3.471 0.179-5.75 4.297-8.324 3.643 5.11-3.217 11.403-8.02 13.528-12.488-4.229 4.594-14.591 8.1-14.568 13.529-0.783 1.547-3.771 0.386-4.162 2.081-1.266 0.603 1.567-0.244 1.567 1.561zm-50.471-28.099c0.107-5.192 2.507-9.944 1.039-15.089 1.438 1.485 1.188-1.019 2.081-1.561 0.17-4.679-1.249-7.77-2.081-11.448-2.183 7.966-2.306 19.511-1.039 28.098zm-1.042-13.007c0.141-0.708-0.32101-2.031-0.521-1.041-0.142 0.708 0.322 2.031 0.521 1.041zm0.52 33.821c0.873-1.252-0.602-3.636-3.123-3.122-0.274 2.357 0.766 3.397 3.123 3.122zm48.911 80.13c-2.076-5.9-7.729-8.224-12.487-11.445 3.256 4.72 6.702 9.251 12.487 11.445zm-91.579-7.803c0.479-1.115 3.934-1.924 2.602-3.121-0.139 1.451-4.129 1.725-2.602 3.121zm-9.365 7.803c1.615-0.98599 2.971-2.231 3.643-4.162-2.759-0.15799-2.642 2.564-3.643 4.162z"/>
   <path d="m150.39 75.499c0.393-1.695 3.379-0.534 4.162-2.081-0.020996-5.43 10.341-8.935 14.568-13.529-2.125 4.468-8.418 9.271-13.528 12.488 2.574 0.654 4.854-3.463 8.324-3.643-3.196 3.047-6.482 6.002-11.966 6.765 3.758 2.459 7.786-1.389 11.446-2.081 6.487-1.227 17.075-0.527 22.373 2.601 5.452 3.219 8.512 13.681 7.285 23.415-0.705 5.588-3.584 9.582-7.806 12.487-1.732 1.194-3.891 1.038-4.163 2.082-0.15601 0.606 4.209 7.063 4.684 10.927 1.131 9.188-3.083 13.664-8.325 17.691-3.064 2.357-3.354 2.583-8.324 3.643-1.234 0.26199-2.32 1.032-3.12 1.041-4.771 0.055008-10.104-3.197-14.571-4.162-4.874-1.055-6.593-1.947-10.406-4.684-7.906-5.675-15.504-12.471-22.373-19.252 0.104 5.621 4.435 7.014 5.725 11.447 3.147 0.959 5.121 4.131 7.804 6.242 2.564 2.02 4.285 2.91 6.765 6.244 8.943 12.026-2.647 36.748-15.609 38.506-6.186 0.838-13.783-3.316-20.294-2.604-4.895 0.53799-8.447 3.87-13.007 4.162-9.658 0.621-16.235-5.215-21.333-9.885-3.625-3.32-5.658-5.477-7.806-11.448-0.961-2.674-2.421-6.358-2.081-10.406 0.396-4.713 3.5-6.792 4.685-12.487 1.576-1.799 4.154-2.892 5.723-4.684 0.417-0.477 0.082001-1.562 0.521-2.081 0.27801-0.332 1.318-0.131 1.56-0.521 0.729-1.176 0.849-3.057 1.562-4.163 1.823-2.835 5.391-6.062 6.766-9.886-1.594-1.561-2.094 2.389-4.163 2.08-0.804-0.757-0.458-2.664-0.521-4.164-2.104 0.59 0.040001 3.037 0 4.685-1.331 3.875-4.409 5.996-5.202 10.407-8.231 8.297-20.593 16.969-37.984 15.089-9.179-0.99101-19.35-5.177-22.896-11.446-0.654-1.16-0.486-6.64 0-9.365 0.505-2.816 2.676-5.765 2.603-8.326-0.188-6.481-6.919-7.697-8.846-13.528-0.94-13.771 5.37-20.295 10.924-27.576 3.627-0.138 6.815-2.649 10.927-3.122 6.706-0.772 14.513 0.040001 19.252 2.601 7.66 0.214 16.16 3.91 22.374 7.286 3.663-2.406 7.025 2.443 11.968 0.52 0.376 5.694 3.729 8.414 9.367 8.846-0.60499-2.169-4.276-1.276-5.204-3.122 1.467-2.519 6.978 3.536 8.846-0.521-0.043999-2.209-4.638 0.129-4.682-2.081-2.147-0.107-0.416-4.094-3.123-3.642-1.674 0.833 1.831 1.943 0 3.122-1.637 0.249-2.034-0.741-3.122-1.041-0.45701-1.672 1.716-0.71299 1.562-2.081h-2.603c0.66501-1.63 1.665-2.874-0.52-3.643-1.008 0.553-0.125 2.997-1.562 3.122-1.549-0.187-2.64-0.829-3.642-1.561 0.015991-1.892 1.53-2.286 3.642-2.081-1.649-2.514-5.706 0.165-5.724 2.601-6.384-2.842-12.147-7.229-18.731-9.366-4.236-1.375-7.727-1.352-11.447-3.643-4.646-2.859-7.745-6.681-10.406-11.968-2.601-5.164-5.462-11.699-4.685-20.813 0.09199-1.064 1.512-2.258 1.562-3.122 0.062-1.071-0.768-0.635-0.521-1.561 0.463-1.732 1.271-3.358 2.081-6.245 1.835-0.401 2.24-2.646 3.644-3.642 3.77-2.674 7.638-1.459 10.927-4.164 1.69-1.39 1.294-3.911 3.122-6.244 4.423-5.648 13.901-7.674 20.813-6.765 13.339 1.759 18.712 12.306 27.573 19.776 3.267 5.312 2.57 12.867 3.123 19.773 0.47999 6.015 2.521 11.402 2.081 16.651 0.421 1.585 2.581 3.282 1.562 4.683-3.033 0.434-3.423-2.771-2.603-4.683-3.908 0.141-2.232 4.53 0 5.203-0.817 1.61-3.526 1.33-4.163 3.122 0.878 3.353 5.913 4.86 7.805 1.562-2.3-3.21-0.57099-4 1.042-6.765-0.37699-1.185-0.464-2.658-1.042-3.643-0.171-23.879 8.884-53.93 29.14-56.715 12.431-1.711 16.096 11.087 21.854 18.211 8.033 1.332 15.696 3.034 21.333 6.763 6.265 9.02 1.082 23.963-4.683 30.18-3.794 0.528-5.511 4.222-8.326 6.244-1.258 0.904-2.982 1.201-4.163 2.082-3.093 2.312-5.154 6.402-8.324 8.325-4.956 3.009-10.805 2.182-16.651 5.724 3.332 2.572 9.239-0.651 14.05 0 2.101-0.329 1.588-3.268 4.685-2.602-0.002991-1.805-2.836-0.958-1.564-1.561zm-55.676-13.008c-2.107-1.504-8.053-1.781-7.805 2.081 2.359 1.629 4.403 3.574 6.243 5.724 0.141-1.552-1.456-3.168 0.521-3.643 0.556 1.966 0.269 2.798 1.561 3.122-0.768-2.957-0.883-3.798-0.52-7.284zm-25.497-32.261c-0.96-1.641-1.873-3.331-3.642-4.163-0.749 1.537 1.868 3.49 3.642 4.163zm3.643 1.041c-0.376-2.747-2.459-3.784-4.163-5.203 0.715 2.406 2.374 3.87 4.163 5.203zm3.642-1.041c-1.448-1.154-2.307-2.898-3.644-4.163 0.644 1.63 2.298 4.965 3.644 4.163zm2.082-0.521c0.082001-0.612-0.089996-1.477 0.52-1.56 2.131 1.512 2.316 4.969 4.163 6.763-0.787-3.549-1.938-6.731-4.163-8.845-0.081993 1.851-2.697 2.279-0.52 3.642zm-11.968 2.082c-0.686-2.09-2.34-3.211-4.163-4.163 0.743 2.033 2.13 3.421 4.163 4.163zm-3.121 1.041c-0.917-1.7-2.451-5.509-4.685-4.163 1.534 1.415 2.32 3.577 4.685 4.163zm-4.163-0.52c-0.105-1.804-0.435-3.383-2.603-3.123 0.541 1.369 0.421 3.396 2.603 3.123zm27.057 2.601c0.214-1.635-1.182-4.322-2.083-3.122 1.066 0.671 0.55 2.919 2.083 3.122zm5.723 4.163c-0.19-3.104-1.278-5.312-3.121-6.765 0.94701 2.348 1.002 5.588 3.121 6.765zm56.718-1.041c3.192-0.616 1.303-2.505 0 0zm1.039 3.123c2.19-0.237 2.496-2.362 3.645-3.643-2.43 9.99e-4 -2.801 2.058-3.645 3.643zm-30.179 19.771c6.946-3.667 11.191-9.895 16.131-15.609 1.741-2.016 4.286-3.39 5.725-5.724 0.026001-0.896-0.40001-1.334-1.04-1.562-5.976 8.596-14.088 15.055-20.816 22.895zm31.219-17.69c2.277-0.673 3.272-2.626 4.684-4.163-2.618 0.331-3.761 2.136-4.684 4.163zm1.042 3.641c0.92299-1.866 5.217-3.089 4.161-5.203-0.77499 1.783-6.068 4.159-4.161 5.203zm-0.522 3.122c1.501-0.421 6.555-4.532 6.246-6.764-1.698 2.639-4.577 4.095-6.246 6.764zm-37.462 8.846c5.28-2.35 7.615-7.646 9.364-13.528-0.688-0.006001-0.478-0.912-1.039-1.041-1.757 5.876-5.297 9.966-8.325 14.569zm-5.204-1.04c3.899-2.347 6.656-8.601 6.765-13.008-2.512 4.079-4.131 9.05-6.765 13.008zm44.229-5.724c-0.817 0.049-1.805-0.07-1.562 1.04 3.404-1.626 5.9-4.158 7.805-7.284-3.167 0.996-4.503 3.824-6.243 6.244zm-68.685 13.009c-3.831-7.096-7.959-13.894-14.049-18.732 4.028 6.899 8.886 12.968 14.049 18.732zm68.164-9.887c2.579-2.283 8.266-4.213 7.804-7.804-2.676 2.525-5.857 4.549-7.804 7.804zm-70.245-4.683c2.632 2.374 9.089 13.114 6.766 9.366s-3.583-8.557-6.766-11.447v2.081zm67.643 9.887c3.97-0.252 6.598-6.194 10.928-7.805-0.080994-0.613 0.089005-1.477-0.521-1.562-3.278 3.312-7.159 6.023-10.407 9.367zm-25.495 5.203c6.738-1.587 10.862-5.788 14.048-10.927 0.548-0.028999 0.41-0.667-0.521-0.52-3.067 5.259-8.927 7.724-13.527 11.447zm30.697-6.765c-0.987 3.525-7.112 4.673-6.763 7.805 2.255-1.24 4.136-3.847 6.244-5.724 2.026-1.803 5.566-3.036 5.202-5.724-1.136 1.639-2.68 2.869-4.683 3.643zm-90.016 0c5.078 2.553 6.448 8.815 11.968 10.927-3.952-4.546-7.07-9.926-12.486-13.008-0.119 0.983 0.585 1.149 0.518 2.081zm91.058 6.765c-4.206 1.343-6.359 4.741-10.927 5.724 3.391-4.243 11.812-6.224 12.489-11.448-5.361 4.525-9.966 9.808-18.213 11.448-0.05101 1.337-2.032 0.743-2.081 2.082 3.25-0.51 5.005-2.299 7.285-1.562-0.671 1.064-2.921 0.549-3.122 2.081 5.482-2.148 10.563-4.7 14.569-8.325zm-45.789-1.041c0.314-1.841-2.695-3.013-3.123-1.041 1.948-0.039997 1.775 2.04 2.083 3.643-3.027 0.77199-2.701-1.811-2.603-4.164-4.43 1.099-0.119 6.008 1.561 7.286-1.202 2.446-3.489 6.559-2.081 9.886 0.27-4.511 3.667-9.668 4.684-15.089 1.615 1.606 2.456 1.116 4.162 2.082 2.09-0.91201 4.682-4.701 1.04-5.724 1.376 3.298-2.523 5.029-3.643 2.601 0.611-1.122 1.079-2.39 1.562-3.642-2.756-0.156-1.934 3.269-3.642 4.162zm8.326 13.008c-0.989 0.224-1.308 1.121-2.604 1.041 0.978-3.704 8.835-0.533 8.846-5.203-1.438-2.969-0.216-2.837 0.521-5.724-1.452-2.978-5.987-2.076-6.764 1.041 0.606 0.78 1.502 1.272 1.56 2.602-2.09 0.843-3.52 2.141-2.601 4.683-2.829 0.639-3.276 3.662-5.726 4.683 0.44899 4.868-3.192 4.117-6.241 3.122 0.256-4.289-5.065-3.205-6.766-1.56-2.236-0.713-2.461-3.437-4.163-4.684-1.718 1.979 0.864 2.989 1.041 4.684-1.424 1.698-1.106 5.137-4.162 5.203 0.393 1.862 1.204 3.306 3.122 3.643-0.28-1.247-2.25-3.459 0-4.164 1.084 0.997 2.168 1.995 2.601 3.643-3.062 0.651-1.372 4.555-1.561 5.727-2.414-0.068001-3.414-2.353-2.603-4.166-5.814 2.896-14.962-0.746-17.171-6.244-3.002-1.281-7.115-1.443-7.285 2.602 1.617 3.918 6.136-0.63301 7.806 2.602-0.29 1.271-2.014 1.108-1.562 3.122 0.33699 1.57 2.364 1.451 3.122 2.603-2.031-0.125-0.95 2.866-3.122 2.603-0.99501-0.221-2.239-0.18801-2.081-1.562 0.11001-0.582 0.578-0.809 1.041-1.039 1.686-0.643 0.398 1.684 2.082 1.039-0.92401-4.823-5.183-1.648-5.203 0-0.056 4.729 7.207 1.546 9.887 4.163 0.845-1.084 4.905-1.654 6.244-0.521-4.781 3.066-9.63-0.24799-14.05 2.604 0.376 4.48 0.972 8.742 3.644 10.925 2.336 0.259 3.898-0.26298 5.723-0.519-0.586 2.494 1.985 1.83 2.603 3.123 2.716-0.203 5.345-2.784 3.643-5.727 0.851-1.056 2.375-1.439 2.601-3.119-1.477-0.238-3.628 4.463-6.765 1.561 3.064-0.407 2.883-4.057 5.204-5.205-0.164 0.70499-0.741 0.99199-0.521 2.082 2.98-0.83501 4.886-2.744 6.243-5.204-1.899 0.354-2.537 1.973-4.163 2.604 0.491-1.593 2.532-1.633 2.603-3.645-3.256 1.08-4.566 4.107-8.325 4.684 0.608 1.932-2.248 5.254-4.164 2.603-0.074997-2.677 3.352-1.854 4.164-3.642-3.33-0.556-4.558 0.992-6.245 2.078-0.59598 2.16 1.095 2.028 1.041 3.646-2.625-0.371-3.798 0.70902-5.723 1.038v-2.6c1.59 0.374 1.896-0.53299 3.122-0.52099 1.835-6.229 11.014-3.974 15.089-8.847-1.079-0.30901-3.418 0.64499-3.644-0.52101 1.188 0.14601 1.956-0.125 2.081-1.042-4.308-0.027-9.197 0.527-10.405-2.6 3.443-1.031 6.706 1.445 9.886-1.043 0.6 0.61699 0.589 1.841 0.52 3.123 2.2 0.57599 3.305 2.246 5.725 2.604 1.934 5.975 8.8-0.21199 13.527 0.52101 0.215 1.252-0.95 1.131-0.52 2.6 2.443 1.372 5.026 2.604 6.763 4.684-0.151 3.012 2.173 4.854 4.685 3.643-0.22899 1.965 1.025 2.443 1.562 3.642 1.871 0.13999 2.507-0.96102 4.162-1.039 2.677 3.812 7.194 6.79 10.925 9.366 1.457 1.006 3.777 3.866 5.204 2.081-5.843-3.522-10.652-8.079-15.606-12.487-0.318-1.072 0.838-3.615-1.042-3.123-0.961 1.12-0.482 3.682-3.123 3.123-0.798-2.531 1.51-1.961 1.561-3.642-1.804 0.069-0.832-2.638-2.6-2.604 0.207 1.944-0.415 3.055-2.084 3.123-1.626 0.241-2.32-0.45099-2.079-2.08 0.415-1.492 3.489-0.326 3.121-2.604-2.189-0.78099-5.251-1.086-7.806-2.602-0.358-0.213-3.222-2.775-3.122-3.121 0.785-2.741 9.521 2.088 10.406 2.08 2.527-0.016998 3.819-0.51 4.684-3.121-0.997-1.084-1.994-2.168-3.643-2.602-1.846 0.232-2.405 1.755-4.162 2.079-1.468-1.479-5.734-0.16-5.726-3.12 4.366-0.065994 10.377-0.977 13.009 1.041 1.102-0.464 1.539-1.585 3.123-1.562-0.59301 1.145-1.343 2.127-1.04 4.164 1.271 0.463 2.255 1.213 4.163 1.041 1.092-1.16 2.935-1.573 3.642-3.121 5.619 0.044998 12.354 2.94 17.172 0.52-8.06-0.438-14.924-2.076-22.375-3.122-0.41301-1.494-1.054-2.762-1.562-4.163 2.418-0.305 3.142 0.711 4.684 0 0.59401-1.141 1.343-2.126 1.039-4.163-1.646-2.182-5.427-1.617-7.804-0.521 0.135-1.696-0.618-2.504-2.082-2.601-2.725 0.569-4.561 2.03-5.202 4.682-1.291 0.982-5.517 1.746-4.162 3.643 1.95-2.278 8.426-0.236 10.404-3.643 2.113 0.719 1.693 3.803 1.042 2.081 0.521 1.372 2.119 1.465 1.562 4.684-0.987-0.117-1.15 0.587-2.084 0.52-1.878-0.027-1.077-2.736-2.081-3.642-0.79 4.5-11.211-1.571-9.364 3.122-2.746 0.107-0.26501-1.782-2.604-2.081 2.263-1.585 2.675-5.858 0.52-7.806 1.877-2.126 5.883-4.869 6.768-6.249zm0-6.244c-1.104-1.15 0.063995-4.575-2.604-4.162 0.347 1.18 1.347 4.362-0.52 4.682-0.438-0.60401-0.688-1.395-0.521-2.601-2.047-0.834-0.18 2.246-1.562 2.081-1.271-1.45 0.737-3.166-0.521-4.162-0.57999 0.80498-1.691 1.083-1.562 2.601-0.387 1.602 1.431 1 1.04 2.602-2.342-0.337-1.909 3.954-4.162 2.082 0.981 1.984-0.462 3.819-1.041 5.724 4.416 1.077 4.266-6.332 8.326-7.285 0.562 1.33-2.239 1.822-0.521 2.602 0.367-2.241 2.81-2.399 3.648-4.164zm-23.416-1.04c-0.473 1.26-2.091 1.377-3.642 1.561 0.354-2.263-0.936-2.879-2.082-3.643-1.659 1.292-5.481 0.417-5.204 3.643 1.995 0.666 6.572 6.746 0.52101 6.245-0.166-1.207 0.083-1.999 0.52099-2.602-1.216 0.171-2.149 0.625-3.123 1.041 0.485-1.25 2.092-1.378 1.562-3.643-0.95-1.132-1.541-2.622-3.122-3.122-1.615 0.986-3.644 1.562-3.644 4.163 4.285 3.867 8.332 7.974 13.529 10.927-0.772-2.349-3.333-2.91-4.162-5.203 2.125 1.007 3.791 5.213 6.764 3.643-2.022-1.099-3.895-2.349-4.683-4.683 2.229-1.312-0.239-3.647 0.521-4.684 2.981 0.58099 5.504 4.452 8.846 1.562 0.624 2.151 1.03 4.52 3.123 5.203-0.704-4.676-2.531-8.225-5.725-10.408zm13.008 31.739c-0.049995 0.81799 0.069 1.806-1.041 1.562 0.383 2.738 2.884 3.361 3.123 6.242-0.686 0.667-1.916 0.667-2.604 0 0.038002 1.771 0.163 3.631-1.039 4.163h-2.082c0.117-0.985-0.586-1.147-0.521-2.082 0.343-0.698 1.112-0.97 2.081-1.041-0.727-2.916 0.049004-7.334-3.643-7.282-0.171 7.312 0.506 11.547 3.643 16.129 3.513 0.377 6.259-1.56 5.203-4.164-1.444 0.479-3.051 4.506-4.683 1.562 1.022-1.643 3.569-0.605 2.081-3.643 2.68 2.453 6.544-0.904 6.243-4.683-4.536 0.033005-3.595-5.417-6.761-6.763zm-36.423-31.219c-1.598-1.88-4.538-5.162-7.283-4.163 2.379 1.098 5.065 4.636 7.283 4.163zm57.757 1.561c3.568-1.463 7.853-2.208 9.887-5.203-2.994 1.717-6.764 2.518-9.887 5.203zm-25.496 7.285c-0.944-4.422 2.503-7.199 1.042-10.406-3.388 0.874-4.523 8.644-1.042 10.406zm21.333-4.684c-0.749 5.494-8.39 4.099-9.366 9.367 3.321-1.188 5.128-3.894 8.327-5.204 0.153 1.06 1.041 1.387 1.561 2.082 2.993-0.649 6.018-1.267 6.243-4.683-1.464-1.688-3.962-2.608-6.765-1.562zm-32.26 6.244c9.99e-4 -1.761-1.586-4.622-3.122-3.121 1.397 0.68401 1.038 3.124 3.122 3.121zm55.677 1.042c-2.927 1.823 0.63699 0.136 1.039 0 3.039-1.036 6.386-2.677 6.243-2.602-3.442 0.25499-6.245 1.954-7.282 2.602zm10.404-3.123c-3.333-0.6-1.142 1.59 0 0zm-11.446 5.724c5.878-1.73 12.529-0.45399 17.171-2.601-4.925-0.487-13.204-0.586-17.171 2.601zm7.804 0.52c-1.515 0.257-4.743-0.085991-4.163 1.561 4.392-2.122 13.897-0.393 18.213-1.041-3.959-0.97899-9.926-1.22-14.05-0.52zm-96.26 3.642c1.428 1 3.632 1.224 5.723 1.562-2.182-2.848-7.342-2.716-11.968-3.122 0.765 1.837 3.97 1.233 6.245 1.56zm77.007 0c8.057 2.013 22.306-1.078 33.823 0-9.916-2.073-23.147-0.417-33.823 0zm16.132 3.122c5.034-1.398 13.017 0.146 16.649 0-5.343-1.46-12.281-3.468-16.649 0zm-97.823 2.081c-4.286-0.37901-8.987-2.685-11.967 0 8.17 0.86699 16.816 0.79899 23.414 1.562-2.41-2.507-7.445-1.208-11.447-1.562zm117.59 3.642c-0.27101-0.245-0.29196-1.39-0.51999-1.558-1.637-1.252-7.358-2.948-10.406-3.125-2.143-0.12401-5.229-0.028-6.246 1.561 5.352-0.571 13.36-0.026001 16.133 3.642-4.721 0.29701-11.009-4.686-14.569-0.521 4.374 0.214 8.156-0.33599 11.446 0.521 2.408 0.62901 3.9849 3.303 6.245 2.084 0.32901-1.21-1.706-2.264-2.083-2.604zm-146.21 2.084c1.25 2.181-0.695 0.92701-1.56 2.079 2.674 1.076 3.551-0.26001 6.763 0 0.735-2.293-3.112-0.01001-3.122-1.559h3.644c-0.605-2.619-3.72 0.14401-5.725-0.52zm137.37 0.521c-1.518-0.48-3.9659-2.508-5.204 0 4.249 0.207 10.505 2.116 15.091 3.642-0.86595-2.807-6.692-2.635-9.887-3.642zm-40.066 4.162c-0.08902 3.238 3.301 3.268 5.723 2.601 1.477-2.412 0.64505-4.054-1.0389-5.724-2.454 0.14601-3.076 2.127-5.202 2.603-2.681-0.79801-6.071-3.629-8.846-2.603 2.976 1.186 5.485 2.839 9.364 3.123zm35.902-0.521c3.6671 1.409 7.992 2.422 11.449 4.162-2.426-3.819-8.291-4.198-13.008-5.726-0.252 1.519 0.78201 1.262 1.559 1.564zm-65.041 4.683c3.2 0.40999 4.534-3.775 3.644-5.726-1.699 1.424-2.896 3.35-3.644 5.726zm-43.187 0c-1.979 0.64699-5.062 0.402-6.244 2.6 7.613-2.116 18.705-5.217 27.578-7.803-8.885-0.446-15.513 3.293-21.334 5.203zm-24.976-2.602c1.647-0.95499 5.194-0.012001 5.725-2.081-1.966 0.634-5.228-0.023987-5.725 2.081zm73.367-1.56c0.298 3.774-2.386 7.312-1.561 9.885 1.017-1.237 1.006-3.504 2.082-4.684 1.103 6.206-8.622 9.498-1.041 13.01 1.404-1.022 3.15-1.705 3.122-4.164 0.093002-1.826-1.758-1.713-2.081-3.123 0.735-2.463 3.033-8.06 1.041-9.885 0.105 1.494-0.131 2.646-1.041 3.123 0.071014-0.903 1.691-4.264-0.521-4.162zm43.707 8.845c-2.616-2.938-7.67-6.199-11.444-6.245 3.624 2.273 7.03 4.761 11.444 6.245zm-113.95-4.683c1.188 0.145 1.956-0.12699 2.081-1.042-0.92201 0.118-2.605-0.525-2.081 1.042zm129.04 1.56c4.905 1.515 9.048 3.787 13.01 6.244 0.207-2.115-2.216-1.602-2.604-3.121 1.495-0.729 2.646 1.416 3.123 0-4.194-2.224-8.458-4.379-14.048-5.205-0.119 0.983 0.584 1.148 0.519 2.082zm-66.082 4.162c3.768 1.022 6.839-3.127 4.163-5.201-0.953 1.3-0.416 4.091-3.122 3.642-0.80699-2.333 2.948-2.761 0.521-3.642-1.609 0.539-3 3.257-1.562 5.201zm-35.382 4.163c5.748-1.188 9.654-4.22 15.61-5.201 0.58101-0.75 0.56001-1.271-0.52098-1.562-4.937 2.345-11.44 3.128-15.089 6.763zm58.276 0c2.938-0.53 5.329-1.605 5.724-4.683-3.284-4.815-11.236 0.836-5.724 4.683zm54.115 0c-1.729-3.994-6.584-4.86-10.406-6.765-0.40399 0.117-1.026 0.017014-1.039 0.521 4.306 1.589 7.782 4.009 11.445 6.244zm-8.846-0.52c1.406 1.073 2.89 2.523 4.685 3.123-1.671-3.359-5.425-4.637-8.325-6.766 0.09201 1.984 2.416 2.711 3.64 3.643zm-132.16-1.041c-0.388 1.982 3.37 1.125 2.603-0.521-1.471-0.42899-1.348 0.733-2.603 0.521zm120.72 1.561c1.741 1.554 2.899 3.688 5.723 4.164-0.791-2.172-4.208-4.45-5.723-4.164zm6.762 3.123c1.865-1.73-4.102-2.795-2.601-4.162 2.239 1.229 4.055 2.881 5.723 4.685 1.932-1.608 1.408 0.055 3.643 0.519 0.31203-1.572-1.54-2.33-2.603-3.123-2.28-1.697-4.387-3.129-7.804-3.121-0.30002 3.248 1.571 4.323 3.642 5.202zm-129.04-1.041c1.862 0.928 5.696-0.023987 7.284-1.041-1.41-0.476-5.905-0.184-7.284 1.041zm121.24-0.521c-0.92799 0.312-2.159-1.524-2.603 0 1.036 0.347 2.224 1.795 2.603 0zm-66.603 13.528c1.03-4.18 5.036-8.141 4.164-12.486-1.896 3.311-5.007 8.168-4.164 12.486zm-49.952-10.925h-5.203c-0.691 2.216 4.846 1.423 5.203 0zm80.132 12.488c0.020012-3.562-2.095-9.303-4.164-12.488 0.60001 4.949 1.711 9.391 4.164 12.488zm-26.016 4.682c3.004-0.783 2.3-5.469 3.122-8.324 0.84899-2.954 3.92-6.34 1.562-8.325-2.527 4.585-3.29 10.932-4.684 16.649zm-59.319-13.527c2.242 1.004 5.764-0.687 8.847-0.521-0.653-2.96-6.659 0.05101-8.847 0.521zm77.008 11.966c2.065-0.398 1.479-5.057 1.042-7.805-0.387-2.443-1.338-5.594-2.601-6.246 0.43502 4.862 1.25 10.617 1.559 14.051zm-57.756-5.204c-0.548 0.028992-0.40801 0.66899 0.521 0.521 2.796-2.58 7.464-3.289 11.968-4.161 0.34299-2.778 4.446-1.798 5.725-3.642-5.479-1.098-10.937 4.982-15.61 4.683 0.24898-1.009 3.663-1.486 2.081-2.604-4.917 2.197-12.164 2.062-16.65 4.684 5.285 0.59801 9.496-2.637 13.009-2.079-1.095 2.55-6.193 1.093-7.286 3.642 1.909-0.194 5.438-1.476 6.242-1.044zm-18.211-4.683c2.441 0.07399 8.878-0.061005 11.448-1.562-2.549-0.178-9.192-0.255-11.448 1.562zm3.642 2.601c1.883 0.224 3.698-1.126 5.724-1.56 2.787-0.59801 6.426 0.334 7.805-2.082-4.181 1.545-11.146 0.303-13.529 3.642zm11.968 4.684c8.117-0.207 12.506-4.145 19.772-5.202-0.082008-0.61299 0.089001-1.479-0.521-1.562-5.806 2.866-13.387 3.956-19.251 6.764zm88.457 11.969c-0.061996-1.325-0.758-2.02-2.084-2.083 0.063995 1.325 0.758 2.019 2.084 2.083zm1.039 5.722c1.269-0.76201-1.387-3.415-2.081-2.081 0.91701 0.47101 0.86 1.914 2.081 2.081zm-1.56 3.123c-0.306-2.126-1.323-3.535-3.12-4.162 0.537 1.887 1.626 3.229 3.12 4.162zm-64.001 1.04c1.412 0.074005 3.914-3.301 1.561-3.645 0.001991 1.737-1.693 1.78-1.561 3.645zm1.041 4.163c1.316-1.243 4.729-5.498 2.601-6.765-0.778 2.344-2.657 3.586-2.601 6.765zm62.439-1.04c-1.412-1.711-1.706-4.54-3.642-5.727-0.775 1.645 2.219 6.32 3.642 5.727zm-1.042 6.242c-0.938-3.223-2.896-5.43-4.162-8.325-0.457 2.664 1.459 7.126 4.162 8.325zm-59.316-1.558c-0.159-2.086 3.604-5.156 1.041-6.246-0.24299 1.858-2.891 4.02-1.041 6.246zm57.237 4.162c-1.317-3.193-2.634-6.391-4.162-9.367-0.817 3.35 1.66 7.626 4.162 9.367zm-3.123 0c-0.39199-1.976-2.022-6.914-4.162-8.846 0.68 3.655 2.113 6.559 4.162 8.846zm-52.554-1.041c1.749 0.532 0.81101-1.617 1.042-2.604 1.176-1.077 1.625-2.883 2.081-4.682h-1.562c0.11999 3.067-2.395 3.502-1.561 7.286zm37.986-1.043c-0.98199-1.443 0.5-5.355-1.562-5.723-0.96199 1.607-0.72899 5.719 1.562 5.723zm4.162 3.645c0.679-2.425-1.604-6.367-2.08-9.367-1.142 3.015-0.15599 8.031 2.08 9.367zm8.325-1.561c-2.098-1.894-2.125-5.854-4.162-7.807 0.07399 3.577 2.092 7.955 4.162 7.807zm-46.83 1.561c-0.22802-2.312 2.451-6.681 0.52098-7.286-0.65998 1.931-2.793 5.579-0.52098 7.286zm43.709 1.039c-0.18601-1.609-1.512-3.146-2.083-4.685-0.457-1.231 0.15699-3.318-1.561-3.642 0.058022 3.936 0.71202 7.268 3.644 8.327zm-40.587-0.521c0.17598-1.163 2.407-4.811 0-5.202-0.277 2.454-1.884 4.309 0 5.202zm4.163 1.563c-0.31498-1.245 0.653-3.775-0.51999-4.163-0.873 1.552-1.373 3.366 0.51999 4.163z" fill="#ffaa56"/>
   <path d="m72.86 26.068c1.337 1.264 2.194 3.009 3.644 4.163-1.348 0.801-3.002-2.534-3.644-4.163z"/>
   <path d="m84.307 31.791c0.901-1.201 2.296 1.486 2.083 3.122-1.534-0.203-1.018-2.451-2.083-3.122z"/>
   <path d="m148.83 38.035c1.303-2.505 3.192-0.616 0 0z"/>
   <path d="m159.23 45.84c-1.903 3.126-4.399 5.658-7.805 7.284-0.241-1.109 0.74501-0.991 1.562-1.04 1.741-2.42 3.077-5.248 6.243-6.244z"/>
   <path d="m141.54 73.938c0.201-1.532 2.451-1.017 3.122-2.081-2.28-0.738-4.035 1.051-7.285 1.562 0.048996-1.338 2.03-0.745 2.081-2.082 8.247-1.64 12.852-6.922 18.213-11.448-0.67799 5.224-9.1 7.205-12.489 11.448 4.566-0.982 6.72-4.38 10.927-5.724-4.006 3.625-9.087 6.177-14.569 8.325z"/>
   <path d="m111.88 83.824c2.155 1.947 1.743 6.221-0.52 7.806 2.339 0.299-0.144 2.188 2.604 2.081-1.847-4.693 8.574 1.378 9.364-3.122 1.004 0.904 0.203 3.613 2.081 3.642 0.934 0.066994 1.097-0.636 2.084-0.52 0.55699-3.218-1.042-3.312-1.562-4.684 0.651 1.722 1.071-1.362-1.042-2.081-1.979 3.407-8.454 1.365-10.404 3.643-1.354-1.897 2.871-2.66 4.162-3.643 0.643-2.652 2.479-4.113 5.202-4.682 1.464 0.097 2.217 0.905 2.082 2.601 2.377-1.097 6.156-1.661 7.804 0.521 0.304 2.036-0.44501 3.021-1.038 4.163-1.542 0.711-2.267-0.305-4.685 0 0.508 1.401 1.147 2.669 1.562 4.163 7.451 1.046 14.315 2.685 22.375 3.122-4.817 2.422-11.553-0.475-17.172-0.52-0.70599 1.547-2.55 1.961-3.642 3.121-1.908 0.172-2.893-0.578-4.163-1.041-0.303-2.037 0.447-3.021 1.04-4.164-1.584-0.021004-2.021 1.1-3.123 1.562-2.632-2.018-8.643-1.107-13.009-1.041-0.010002 2.96 4.258 1.641 5.726 3.12 1.758-0.324 2.316-1.847 4.162-2.079 1.647 0.434 2.646 1.518 3.643 2.602-0.863 2.611-2.155 3.104-4.684 3.121-0.886 0.008003-9.621-4.822-10.405-2.08-0.101 0.346 2.763 2.908 3.121 3.121 2.555 1.516 5.615 1.819 7.806 2.602 0.368 2.275-2.706 1.109-3.121 2.603-0.241 1.63 0.453 2.322 2.079 2.081 1.669-0.068001 2.291-1.179 2.084-3.123 1.768-0.033005 0.796 2.676 2.6 2.604-0.050995 1.681-2.357 1.108-1.561 3.642 2.641 0.55901 2.162-2.003 3.123-3.123 1.88-0.492 0.724 2.051 1.042 3.123 4.954 4.408 9.765 8.965 15.606 12.487-1.427 1.784-3.747-1.075-5.204-2.081-3.729-2.576-8.248-5.555-10.925-9.366-1.655 0.078003-2.291 1.179-4.162 1.039-0.536-1.198-1.791-1.677-1.562-3.642-2.511 1.211-4.836-0.631-4.685-3.643-1.735-2.078-4.318-3.312-6.763-4.684-0.432-1.469 0.733-1.348 0.521-2.6-4.729-0.73201-11.596 5.453-13.528-0.521-2.42-0.355-3.524-2.025-5.725-2.604 0.069-1.283 0.080002-2.507-0.52-3.123-3.181 2.488-6.442 0.012001-9.886 1.043 1.208 3.127 6.099 2.571 10.405 2.6-0.125 0.917-0.895 1.188-2.08 1.042 0.224 1.164 2.563 0.212 3.643 0.521-4.076 4.873-13.254 2.617-15.089 8.847-1.227-0.013-1.532 0.896-3.122 0.521v2.6c1.925-0.33 3.098-1.409 5.723-1.039 0.055-1.615-1.636-1.483-1.041-3.645 1.688-1.086 2.916-2.634 6.245-2.078-0.812 1.786-4.239 0.96499-4.164 3.642 1.916 2.651 4.772-0.671 4.164-2.603 3.759-0.576 5.068-3.604 8.325-4.684-0.070007 2.012-2.111 2.052-2.602 3.645 1.626-0.632 2.262-2.248 4.162-2.604-1.356 2.46-3.263 4.368-6.243 5.204-0.221-1.09 0.355-1.377 0.521-2.082-2.321 1.148-2.14 4.798-5.204 5.205 3.137 2.902 5.288-1.799 6.766-1.562-0.227 1.681-1.75 2.064-2.602 3.12 1.702 2.941-0.926 5.521-3.643 5.727-0.617-1.293-3.188-0.629-2.603-3.123-1.824 0.256-3.387 0.776-5.723 0.519-2.672-2.183-3.268-6.444-3.644-10.925 4.421-2.852 9.269 0.464 14.05-2.604-1.338-1.135-5.399-0.56301-6.244 0.521-2.68-2.617-9.942 0.565-9.886-4.163 0.020004-1.648 4.278-4.823 5.202 0-1.684 0.645-0.396-1.682-2.082-1.039-0.46201 0.23-0.93 0.457-1.041 1.039-0.158 1.374 1.086 1.343 2.081 1.562 2.172 0.265 1.092-2.728 3.122-2.603-0.758-1.149-2.785-1.031-3.122-2.603-0.451-2.013 1.271-1.851 1.562-3.122-1.67-3.235-6.188 1.316-7.805-2.602 0.168-4.045 4.281-3.883 7.284-2.602 2.209 5.498 11.355 9.14 17.171 6.244-0.812 1.813 0.188 4.097 2.603 4.166 0.188-1.172-1.501-5.074 1.561-5.727-0.433-1.648-1.517-2.646-2.601-3.643-2.25 0.70401-0.28 2.917 0 4.164-1.918-0.33601-2.729-1.781-3.122-3.643 3.056-0.065994 2.738-3.505 4.162-5.203-0.17699-1.695-2.758-2.705-1.041-4.684 1.701 1.247 1.927 3.97 4.163 4.684 1.699-1.645 7.021-2.729 6.766 1.56 3.049 0.99501 6.69 1.746 6.241-3.122 2.448-1.021 2.896-4.044 5.726-4.683-0.919-2.542 0.511-3.84 2.601-4.683-0.057999-1.33-0.952-1.822-1.56-2.602 0.775-3.117 5.312-4.019 6.764-1.041-0.736 2.887-1.96 2.755-0.521 5.724-0.010994 4.67-7.868 1.499-8.846 5.203 1.296 0.080002 1.613-0.81699 2.604-1.041-0.886 1.385-4.892 4.128-6.768 6.249zm8.847-13.008c1.964-0.29 2.883-1.627 3.122-3.642-0.603-0.438-1.395-0.688-2.602-0.521-0.417 1.208-1.666 2.955-0.52 4.163zm-0.522 5.203c1.4-0.077995 4.374-3.241 1.562-4.163-0.447 1.361-3.837 3.283-1.562 4.163zm-19.25 9.886c1.245-0.314 2.374-0.748 4.163-0.521-0.752-1.678-1.122-3.733-3.643-3.643-0.80299 0.759-0.458 2.665-0.52 4.164zm-5.204-0.52c1.125 1.173 1.773-0.431 3.643 0 0.876-3.59-4.41-3.181-3.643 0zm23.936 1.561c2.111 1.467 4.323-0.664 4.685-2.601-0.11-0.584-0.578-0.811-1.042-1.041-1.761 0.667-3.387 1.472-3.643 3.642zm6.765 0c1.349 0.559 2.551 1.264 4.684 1.041v-2.601c-1.75-1.37-4.246-0.008003-4.684 1.56zm-55.676-0.52v2.081c1.552-0.011002 3.171 0.048996 3.122-1.562-0.44-0.995-2.283-1.407-3.122-0.519zm28.618 4.162c-0.46201 1.098-2.219 0.904-2.082 2.602-0.119 1.853 0.749 2.721 2.604 2.602-0.042999-2.125 0.396-3.768 2.081-4.163-0.413-2.188-2.734-2.47-2.081-5.724-4.059-0.083-1.975 3.426-0.522 4.683zm12.486-1.04c-0.069-1.664 0.515-3.981-1.56-3.643 0.151 1.585-0.082001 3.552 1.56 3.643zm-9.884-2.602c0.093002 2.336 0.981 3.875 2.602 4.684 0.708-2.069 2.715-2.835 3.121-5.203-1.864 1.357-4.045-0.83701-5.723 0.519zm5.202 7.284c1.944-0.137 3.035-1.126 2.604-3.643-1.659 0.446-1.608-0.819-2.604-1.041-1.568 1.123-0.801 3.204 0 4.684zm-30.179 0.521c2.113 0.204 3.625-0.19 3.644-2.082-1.357-1.095-4.608-0.754-3.644 2.082zm26.016 2.603c2.135 0.049004 2.364-1.801 3.123-3.123-2.31-4.25-6.574 0.013-3.123 3.123zm18.733-4.164c-1.412 0.322-4.129-0.661-4.684 0.52 1.413-0.321 4.129 0.661 4.684-0.52zm-15.61 4.682c1.646 0.716 1.737 0.114 3.644 0-0.008003-1.378 0.288-3.062-1.041-3.12-0.823 1.085-2.796 1.019-2.603 3.12zm22.375-1.039c1.639-0.252 1.18 1.599 3.123 1.039 0.16-0.703 0.73801-0.993 0.519-2.079-0.93399-0.873-3.195-0.138-3.642 1.04zm-24.977 3.123c-0.023994-2.59-4.396-3.565-6.244-2.603 0.624 2.37 3.934 3.491 6.244 2.603zm16.649 0c1.584 0.020996 3.426 0.3 3.123-1.562-1.156-0.404-1.396-1.729-3.123-1.562-1.132 1.088 0.263 1.484 0 3.124zm-41.624-1.563c-0.246 2.358 2.433 1.42 3.642 1.041 0.488-2.116-2.817-1.804-3.642-1.041zm-2.602 7.806c0.097-0.771 1.257-0.477 2.081-0.521v-2.08c-2.493-0.493-3.937 1.584-2.081 2.601zm42.147 0c0.23-1.323-2.719-2.072-3.123-1.042 0.926 0.464 1.324 1.454 3.123 1.042zm-41.107 6.244c0.217 1.309 4.013 1.695 4.163 0-0.904-0.623-3.68-2.028-4.163 0zm6.765 3.119c1.727 0.166 3.199 0.082001 3.643-1.039 0.28-4.02-4.668-2.696-3.643 1.039z"/>
   <path d="m115.01 75.499c-1.719-0.78 1.082-1.272 0.521-2.602-4.062 0.954-3.91 8.362-8.326 7.285 0.579-1.904 2.022-3.74 1.041-5.724 2.253 1.873 1.82-2.419 4.162-2.082 0.391-1.602-1.427-1-1.04-2.602-0.131-1.518 0.98-1.795 1.562-2.601 1.258 0.996-0.752 2.712 0.521 4.162 1.382 0.165-0.485-2.915 1.562-2.081-0.167 1.207 0.083 1.998 0.521 2.601 1.865-0.32 0.865-3.502 0.52-4.682 2.668-0.41299 1.499 3.012 2.604 4.162-0.842 1.766-3.285 1.924-3.648 4.164zm-2.601-1.041c0.076004-0.615 0.928-1.181 0-1.562-0.073997 0.616-0.928 1.18 0 1.562z"/>
   <path d="m139.46 67.174c-2.034 2.995-6.317 3.74-9.887 5.203 3.124-2.685 6.894-3.486 9.887-5.203z"/>
   <path d="m156.11 79.662c0.143-0.075005-3.204 1.566-6.243 2.602-0.40199 0.136-3.966 1.823-1.039 0 1.036-0.648 3.839-2.347 7.282-2.602z"/>
   <path d="m60.892 138.98c1.332 1.197-2.124 2.006-2.602 3.121-1.527-1.395 2.463-1.669 2.602-3.121z" fill="#41632f"/>
   <path d="m105.12 69.255c1.461 3.208-1.986 5.984-1.042 10.406-3.481-1.761-2.346-9.531 1.042-10.406z"/>
   <path d="m115 108.8c0.301 3.777-3.563 7.135-6.243 4.684 1.488 3.035-1.059 1.998-2.081 3.642 1.632 2.942 3.237-1.084 4.684-1.562 1.055 2.604-1.691 4.539-5.204 4.162-3.137-4.582-3.812-8.815-3.643-16.129 3.69-0.051003 2.916 4.367 3.643 7.283-0.969 0.071007-1.738 0.344-2.081 1.041-0.065002 0.936 0.638 1.098 0.521 2.082h2.082c1.202-0.53099 1.077-2.393 1.039-4.163 0.688 0.667 1.918 0.667 2.604 0-0.239-2.881-2.74-3.504-3.123-6.243 1.11 0.243 0.991-0.742 1.041-1.562 3.163 1.345 2.222 6.795 6.761 6.765zm-4.682 3.642c2.122 0.21401 3.282-0.53401 3.121-2.604-2.327-0.418-2.889 0.927-3.121 2.604z"/>
  </symbol>
  <symbol id="b" width="275.102" height="191.446">
   <switch>
    <g>
     <path d="m242.14 15.1c1.91-0.292 1.326 1.91 3.236 1.618-0.022995 2.663-0.10998 3.658-0.53899 4.854-1.721 0.462-1.668-0.849-2.697-1.079-0.013-2.278 1.044-3.483 0-5.393z" fill-rule="evenodd"/>
     <path d="m13.482 61.479c1.051 0.927 1.163 2.792 1.079 4.854-1.381-0.597-1.059-2.896-1.079-4.854z" fill-rule="evenodd"/>
     <path d="m222.72 65.793c1.688-0.25 2.407 0.469 2.157 2.157-1.688 0.25-2.407-0.46899-2.157-2.157z" fill-rule="evenodd"/>
     <path d="m16.179 70.107c2.857 2.535 2.288 8.498 3.775 12.403-1.199 0.419-2.103 1.133-3.775 1.079-0.064001-4.728-4.374-10.69 0-13.482z" fill-rule="evenodd"/>
     <path d="m230.81 80.354c1.235 0.922 1.275 3.039 1.617 4.854-2.166 0.008003-1.499-2.816-1.617-4.854z" fill-rule="evenodd"/>
     <path d="m123.5 87.903c-2.857 1.652-5.18-0.672 0 0z" fill-rule="evenodd"/>
     <path d="m122.42 90.061c-2.279 1.411-4.474-0.445-7.011 0.54 1.072-1.31 5.348-1.535 7.011-0.54z" fill-rule="evenodd"/>
     <path d="m43.682 98.15c-1.299-0.221-1.172 0.985-2.696 0.54-0.286-0.43401-0.563-0.875-0.54-1.618 0.822-0.831 3.698-0.961 3.236 1.078z" fill-rule="evenodd"/>
     <path d="m159.09 97.071c2.405 3.822-1.406 13.85 4.854 15.64 2.434-1.528 4.385-6.391 3.774-9.168 2.147-1.351 0.726 5.053-0.539 5.393-0.373 2.313-0.204 3.563-0.53899 4.854-3.191 1.463-7.019-0.729-7.011-3.774 0.001999-0.791-1.613-2.671-1.618-2.697-0.58299-3.32 1.22-7.563 1.079-10.248z" fill-rule="evenodd"/>
     <path d="m163.4 98.689c1.411 1.95 1.917 7.259 1.079 9.707-0.916-2.678-1.127-6.064-1.079-9.707z" fill-rule="evenodd"/>
     <path d="m242.68 99.768c0.401-1.216 3.024-0.21 4.314-0.539-0.50699 2.106-2.72 0.458-4.314 0.539z" fill-rule="evenodd"/>
     <path d="m246.99 99.768c1.636-0.198 1.119 1.757 1.617 2.696-2.136 0.62701-2.65 1.11-4.314 0.54 1.461 0.501-0.068008-1.955-0.539-2.157 1.429-0.009003 3.175 0.299 3.236-1.079z" fill-rule="evenodd"/>
     <path d="m22.111 103.54c0.542-1.356 2.385 0.429 2.157 1.617-1.733 0.475-0.739-1.777-2.157-1.617z" fill-rule="evenodd"/>
     <path d="m251.31 177.42c-1.019-0.239-3.25 0.733-2.696-1.079 0.806-0.85599 3.074-0.78799 2.696 1.079z" fill-rule="evenodd"/>
     <path d="m265.33 106.24c0.35501 1.802 1.678 2.638 2.157 4.314-1.248 7.871-4.455 12.563-1.618 21.032-7.073 0.38399-8.778-7.348-9.167-11.864-1.481 0.612-1.829 3.252-2.157 4.854-0.796 3.877-0.66 8.43 1.617 12.403 2.438 1.157 5.122 2.068 6.472 4.314-0.81699 2.538-1.351 4.33-3.235 4.854-8.911 2.474-13.436-15.881-9.707-24.808-3.927 1.646-5.783 7.965-8.629 13.482-6.873 13.327-12.577 43.797 11.325 43.682 2.614-0.801 1.765-5.066 2.696-7.55 8.609 0.18701 3.266 10.3-0.539 11.864 0.81 0.808 1.613 1.622 2.157 2.696-0.42902 2.628-1.231 4.882-3.236 5.933-2.753-0.48201-5.725-0.74701-6.471-3.236 1.962-0.295 4.647 1.779 5.393-0.539 1.272-1.941-2.016-3.154-2.696-4.854-3.592-0.36099-7.434-1.519-9.707-3.235-5.343-4.033-9.399-13.82-9.168-22.65 0.453-17.298 12.098-33.802 21.032-41.524 0.118-2.039 1.695-2.619 2.157-4.314 3.289 1.644 5.667-5.32 9.167-1.618 0.104 2.386-3.247 1.384-3.235 4.854 0.62399 1.106 2.148-1.403 2.157-2.696 0.617 2.249-1.661 6.239-4.314 7.011 0.58002 3.914 1.178 7.811 3.775 9.707 0.716-0.975 1.606-5.012 1.078-8.089 0.60702-3.005 3.561-7.269 2.696-10.246-0.90399-3.12-4.111-3.964-7.011-3.775-6.954 0.453-9.948 11.841-15.1 12.403-0.621 0.638-0.61 1.906-0.539 3.236-1.419 0.55801-3.31 0.645-5.394 0.539 0.187-1.904 1.416-1.395 2.697-1.079-0.31-4.844 7.779-5.543 8.089-9.168 0.28899-3.39-3.196-2.933-3.775-5.393-2.616-0.001999-1.29 1.889-2.157 2.696-2.47 0.945-5.412 1.419-8.628 1.618-1.151 0.252-1.027-0.771-1.079-1.618-0.964 1.373-3.291 1.383-4.313 2.696 0.98801 3.865 5.696 4.011 8.628 5.933-2.697 2.4-7.541-1.592-9.707-3.235-6.022 2.494-14.502-0.134-20.492-1.079 0.521-3.793 3.3-5.328 4.854-8.089-5.538-2.731-11.417-5.122-15.101-9.708-2.054-5.136-4.164-10.216-3.235-18.335 0.74699 1.45 1.528 0.793 2.157-0.54 0.474-2.512-1.778 0.36401-1.618-1.079-0.474-5.506 3.424-6.642 4.314-10.786 4.85-3.184 9.397-7.907 15.639-7.55 5.334 0.306 9.293 6.352 15.101 5.932 1.98 4.49 6.049 6.894 8.089 11.325-1.02 1.07-2.548 0.262-3.774 0 2.672 5.596 4.195 12.343 8.089 16.718 3.205-3.129 5.7-9.702 12.403-7.55 6.639-4.596 4.099-17.923 2.696-25.346-2.352-3.581-4.415-7.449-6.471-11.325-8.023-4.814-16.97-11.457-30.74-10.246-0.226 4.214-2.089 12.147-5.933 12.403-5.346 0.357-4.723-9.407-9.707-11.325-4.748 1.723-11.064 1.878-14.561 4.854-1.647 0.39-1.965-0.551-3.235-0.54-6.053 4.374-15.425 5.428-18.875 12.404-1.65 0.327-2.81 1.145-4.314 1.618-7.687 8.672-18.062 14.655-27.503 21.571 11.269-2.831 20.857 4.208 28.582 3.236 1.996-0.378 1.346 1.891 2.157 2.696 9.647 2.217 15.251 8.478 21.571 14.021-1.489 2.645-7.566 0.703-9.707 2.697-3.947-1.806-6.652-4.853-11.325-5.933-2.189-2.125-2.772-5.856-5.932-7.011-1.396 3.744 3.175 6.166 3.235 10.247-2.586-1.189-1.897-5.652-4.313-7.011-1.806 0.712 1.029 6.063-1.618 5.932 0.16299-3.397-0.332-7.575 0-10.786-7.335-7.165-25.968-5.333-35.054-1.079 4.07 2.161 10.513 4.424 9.707 9.707-8.805-2.393-20.091 4.389-25.885-1.618-10.441 0.138-22.554 1.458-33.436 0.539-14.914-1.259-28.166-8.495-38.289-13.482 1.144 3.71 4.255 5.453 5.393 9.168 4.205 2.985 10.575 3.806 15.1 6.471-2.82 2.573-6.828 3.958-9.168 7.011-2-0.38301-2.314 0.921-4.314 0.539 0.816 4.648 2.488 6.119 5.393 5.932 3.616-0.232 4.506-5.725 8.628-4.854 1.942 0.41001 4.113 3.398 3.775 6.472-0.876 7.961-15.816 10.076-24.807 5.933-3.004-1.386-5.359-4.325-8.089-7.011-2.579 3.005-11.259 4.239-12.943-0.54 1.329-1.547 1.833-3.919 3.236-5.393-1.268-2.387-0.305-4.213-1.079-6.471-0.426-1.245-1.905-1.861-2.157-2.697-0.238-0.79 2.08-0.617 0.54-2.157-1.351-1.351-0.243-1.916 0-4.854-2.204 0.086998-5.361 0.594-8.089-1.078 0.034-3.382 1.197-5.634 2.696-7.55-1.991-4.613 1.645-14.19-3.235-17.796 0.849-5.697-3.055-7.851-5.395-12.401 0.423-6.434-0.112-9.298 0.54-14.021 3.485 3.067 13.642 3.712 18.875 1.618v-3.235c-1.392-1.44-0.568 1.241-2.697 0.539-0.469-2.407-3.106-2.646-5.932-2.696-1.473-1.942-3.497-3.334-3.775-6.472-2.425-1.709-3.808-4.461-4.314-8.089 5.205-0.345 12.621-1.279 17.257 1.079 0.611 2.804 2.84 3.992 3.775 6.472 0.051001 4.299-0.895 6.536 0.54 9.707 2.447 0.28999 3.23-1.084 4.854-1.618 1.835-7.697 0.507-13.83 4.314-19.415 1.803-2.645 2.152-2.907 4.314-4.854 1.073-0.966 2.824-3.473 4.854-3.775 1.376 0.602-0.216 4.171 1.079 4.854 2.734-0.226 4.458-2.82 7.55-1.079-1.194 3.074-3.435 2.253-4.314 5.393-0.662 2.363 0.715 4.974 0 7.55-1.083 3.901-5.104 5.679-7.011 8.089-1.292 0.326-2.46 0.775-4.314 0.539-1.128 0.67-2.027 1.569-2.696 2.697 5.013-0.014 17.394-1.349 18.875 5.393-10.982-0.084999-18.682 9.526-28.582 2.696-7.065 0.32901-14.35 1.163-19.954-1.078 0.176 3.157 5.975 4.535 10.246 7.55 4.926 3.477 9.438 9.274 17.257 8.089 4.027-0.61001 5.246-4.211 9.168-5.932 4.061 1.767 6.931 6.735 5.393 12.403 9.097 2.236 22.798 2.741 28.043 9.707 2.451 3.256 3.843 10.093 0 14.021-4.406 0.181-5.133-4.652-9.168-3.236 2.738-1.433 0.044998-6.736-1.079-9.167-1.272 0.148 0.049999 2.009 0.54 2.157-0.373 1.69-1.438 0.703-2.697 0.539-1.436 2.105 3.106 2.063 2.157 5.393-10.12-0.306-20.253-0.59899-24.807-6.472 2.824-0.47799 6.67 2.67 11.864 1.618 0.209 2.187-3.361 0.594-4.854 1.079 3.96 1.972 10.539 1.326 15.639 2.157 1.058-1.444-2.507-2.865-3.775-3.775-0.329-2.127 2.961-0.63401 4.314-1.079-0.968-4.065-5.285-4.782-7.55-7.55 4.957 1.043 8.598 2.341 10.786 5.932 2 3.282 1.246 8.477 5.393 9.707 1.737-0.24101 3.131-0.82301 2.696-3.236-1.124-0.882-4.288 2.996-4.854-1.079 1.472-0.393 1.086 1.072 2.157 1.079 2.479-3.08-0.402-4.75-1.079-7.55 1.473 0.68499 2.15 2.164 3.236 3.236 0.736-1.655-1.977-4.48-4.854-4.314-0.068001-0.967 0.66-1.138 0.53899-2.157-5.47-4.417-17.499-2.275-24.807-4.854 1.234-4.427 0.67-10.385-2.697-11.864-4.449 1.483-6.409 5.455-11.325 6.472-10.917-2.925-16.332-11.352-26.425-15.1 1.07 1.244-0.135 0.599-0.539 1.618 0.355 1.615 1.153-0.516 2.157 0 11.036 9.458 21.155 19.831 31.818 29.661-3.779 0.178-6.498-5.362-10.247-7.011-2.506-3.965-6.311-6.632-9.707-9.707 6.811 7.75 13.652 15.469 22.65 21.032 0.152 0.871-0.51 0.928-0.54 1.618 12.089 3.547 27.136 10.143 42.606 10.246 7.571 0.050003 15.051-0.418 21.032-3.236 0.991-2.818-1.181-4.51-1.079-6.471 0.429-8.193 11.794-11.23 8.628-22.111 6.857 4.125 10.349 16.12 4.854 23.729 1.568 0.82699 3.982-2.114 5.932-2.696 3.405-5.187 6.122-13.03 6.472-20.493 0.056999-1.22-1.05-1.703-1.079-2.157-0.061996-0.997 1.139-1.938 1.079-2.697-0.127-1.599-0.266-3.992-1.618-4.854-1.586 1.649-1.577 4.895-3.235 6.472-2.657-4.354-5.594-8.428-13.482-7.55-0.15-1.108-1.44-1.076-2.157-1.618-1.013-0.785-0.064995-3.53-1.079-4.314-1.698 0.476-3.571 2.523-4.314 4.314-0.575 1.385 0.353 2.772 0 4.314-0.333 1.453-1.82 4.358-2.696 6.471-2.101 5.065-3.237 7.471-9.168 7.011-4.061 2.674-7.354 3.428-13.482 2.696-5.912-0.706-6.187-1.152-10.247-4.314-5.875-4.577-7.647-9.525-8.628-18.875-0.544-5.189-0.387-5.832 1.618-10.247 2.163-4.763 4.679-8.229 7.011-11.325 2.892 0.273 5.9-2.278 9.168-3.236-0.115-3.66-6.333-1.217-6.472-4.854 3.416-4.583 14.094-4.206 20.493-2.697 0.985-0.812 1.269-2.326 2.157-3.235 6.47-0.538 9.28 2.584 12.943 4.854 7.163 0.031 15.792 1.32 18.336 7.55-1.455 1.062-4.712 0.321-7.011 0.54 0.759 2.167 3.65 0.832 5.393 1.079 2.583 0.365 5.272 1.588 7.55 1.618 0.772 4.084 5 6.971 3.775 11.325-2.675-0.686-6.253-2.923-9.168-1.618 1.204 4.263 7.094 9.274 8.089 16.718 1.061 7.929-0.478 15.521-2.696 22.111-2.12-0.33901 0.812-1.832-0.53999-3.775-1.705 2.07-2.508 5.042-3.775 7.55 3.28 0.583 1.8-3.593 5.393-2.696 4.083-6.173 9.277-11.146 13.481-18.336 1.382-2.362 3.29-5.164 3.236-7.011-0.080002-2.744-2.544-3.587-3.775-5.932-0.903-1.722-1.562-4.123-1.617-5.932-0.257-8.356 5.763-16.541 3.235-26.425 3.163 0.913 4.442 4.819 5.932 7.55 2.365 4.335 4.161 8.579 4.314 15.64 3.508-2.245 3.904-7.601 6.472-10.786-0.498-0.94 0.018997-2.895-1.618-2.697 1.885-2.595-1.308-5.623-1.078-9.167 0.324-5.019 3.816-9.355 8.089-10.786 0.858 2.198 1.239 4.873 1.079 8.089 4.254-2.326 9.827-5.843 16.179-4.314-0.56 3.036-3.83 3.361-5.394 5.393-0.32201 4.531-3.094 6.613-4.854 9.707-4.854 1.258-9.513 2.711-10.785 7.55 4.194 0.34899 8.893-3.279 14.561-3.236-3.057 4.313-5.97 8.771-7.55 14.561 1.737 0.92101 3.897-1.654 4.854-3.235 7.93-3.024 13.201-9.488 21.571-12.404 3.586-1.25 9.027-0.973 11.864-3.236 0.51401-2.362 1.271-4.481 2.696-5.932 3.86 0.454 4.891 3.738 4.854 8.089 2.242 2.831 8.007 1.534 11.864 1.618 1.619 0.035 2.939 0.886 4.314 0.539 2.871-0.72401 3.804-3.491 5.932-4.314-1.261-1.765-0.84601-4.143 0-6.471 2.337-1.3 3.65 0.78901 5.393 1.618-1.495 0.796-2.521-0.08299-3.774 1.618 0.45299 1.344 0.70599 2.889 0.539 4.854-6.091 4.034-11.125 7.952-21.032 7.011 3.4 3.671 14.687 1.899 18.875-0.54001 2.753-1.603 3.727-5.01 7.011-4.854-1.334 3.879-4.189 6.236-8.628 7.011 2.533 2.68 8.449 1.977 12.403 3.236 2.455 2.938 7.837 2.948 9.168 7.011 1.87-0.43299 2.072 0.80301 3.774 0.53901 3.426 3.93 6.113 8.319 8.629 13.482 0.35901 0.737 0.664 1.479 1.078 2.157 0.28699 0.47001 1.461 1.273 1.618 1.618 2.083 4.559 1.351 8.976 2.157 14.561 0.10599 0.74001 1.033 1.415 1.078 2.157 0.71701 11.803-4.448 23.327-9.707 32.355v8e-6zm-17.257-70.107c-0.554 1.812 1.677 0.839 2.696 1.079 1.315 1.74 3.418 2.694 5.933 3.235-1.45-2.864-5.419-3.209-8.629-4.314zm-129.97 50.693c-0.213 0.928 0.8 1.382 0 1.618-3.843 0.821-7.445 1.647-10.786 1.618 1.718 8.907 15.383 0.609 22.65 3.775-0.94002-5.118-6.026-8.544-11.864-7.011zm25.885-16.179c-0.756-4.69 8.522-6.459 7.55-11.325-5.4 6.104-11.277 11.732-18.335 16.179 7.716-7.204 15.958-13.882 22.111-22.65v-2.157c2.209 0.052002 2.449-1.865 3.235-3.236-3.534-0.65901-4.485 1.267-5.932 2.697-0.123-0.956 0.543-2.701-1.079-2.157-2.742 1.089-0.40898 1.792 0 3.775-1.02 0.121-1.189-0.608-2.157-0.539-5.307 8.715-11.427 19.49-19.414 23.729 4.263-4.904 9.317-9.019 12.403-15.1-3.474 3.537-7.347 6.674-9.707 11.325-1.538-0.113-2.529 1.962-3.775 3.236-0.85002 0.868-4.354 2.745-2.157 3.236 1.498-0.577 2.983-2.741 4.314-0.53999-1.418 1.818-5.573 0.89799-5.393 4.314 7.133-2.576 11.941-7.474 18.336-10.787zm8.09 10.786c2.52 0.837 4.181 2.807 5.932 3.775 0.72 0.39801 3.184-1.205 1.618 1.079 2.318 0.25499 0.68901-1.451 1.617-1.618 4.75 5.497 9.258 11.235 16.179 14.561 1.562-1.314 6.344 0.591 7.011-1.618-5.668-4.579-10.219-10.274-18.875-11.864-1.242-1.095-2.532-2.142-3.774-3.236-1.292 0.326-2.461 0.77501-4.314 0.53901-10.297-5.292-25.923-5.799-35.054 1.079 8.462-3.598 21.163-5.519 29.66-2.697zm-32.358 2.696c2.181-0.353 5.557-2.331 4.314-4.314-0.221 0.67799-0.69601 1.102-1.618 1.079 0.236-0.596 2.381-2.798 1.079-1.618-2.229 0.64699-2.399 3.353-3.775 4.853zm56.625-40.446c-10.793 7.183-21.51 14.443-29.661 24.268 3.602-1.449 6.017-5.062 8.629-7.011 1.062-0.793 2.841-0.814 3.775-1.618 2.127-1.831 3.414-6.082 7.01-5.932 0.593-1.564 1.724-2.591 2.697-3.775 5.154-2.935 10.703-5.475 16.178-8.089h3.236c0.88602-1.99 4.723-1.029 5.393-3.235-5.692-0.297-11.156 4.3-17.257 5.392zm-16.179-32.357c0.49799-0.94-0.019012-2.895 1.618-2.696 0.49101 5.646-1.001 8.871 0 12.943 2.922-5.495 4.085-11.429 2.696-18.875h-1.618c-0.58801 2.836-4.409 5.283-2.696 8.628zm6.472 7.55c5.296-1.051 8.973-7.132 10.785-11.325 0.198-0.458 0.93402-1.433-0.539-1.618-4.681 3.049-8.677 6.782-10.246 12.943zm-1.079-1.079c1.542-3.851 3.563-7.222 5.933-10.246-3.892 1.147-6.315 6.622-5.933 10.246zm-126.19-5.932c-2.766-2.99-5.379 3.15-6.471 5.393 1.696 0.27 2.108-1.176 3.236 0 0.712-2.713 5.466-4.228 4.854-6.471-0.222 0.678-0.697 1.102-1.619 1.078zm56.086 7.011c5.841 0.451 9.349 3.234 14.561 4.314 2.338-1.796 5.021-3.247 7.55-4.854-3.483-2.012-9.403-3.505-14.021-2.696-3.732-1.661-5.588-5.198-11.325-4.854 0.583 3.192 2.947 4.603 3.235 8.09zm-59.322 7.55c5.161 0.48701 2.636-6.712 5.932-8.089 0.226 2.563-0.785 3.89-1.079 5.932 6.024-0.82499 2.755-9.212 4.854-12.943-5.884 2.563-10.105 7.816-9.707 15.1zm33.975-11.325c2.105-0.536 3.375 2.289 5.932 2.696 2.594 0.414 5.807-0.98799 8.628-0.539 3.587 0.571 4.875 2.737 7.55 2.696-0.567-1.698-2.11-2.417-1.079-4.314-3.969-4.154-16.519-4.416-21.031-0.539v1e-5zm90.6 0c0.080994-1.339-0.278-2.238-1.078-2.696-0.080994 1.337-0.101 2.617 1.078 2.696zm-67.411 1.079c-0.198-1.6-0.935-2.66-2.157-3.236 0.198 1.6 0.935 2.661 2.157 3.236zm53.929 29.121c0.27103-2.784 3.217-2.895 3.774-5.393-1.516-0.10201-1.476-1.76-2.696-2.157-0.834 1.862-1.68 3.714-3.235 4.854 0.44501-2.05 0.694-3.863-0.53999-5.393 0.029007 0.928-0.41501 1.382-1.078 1.618 0.338-1.639-0.69-4.645 0.539-5.393 0.774 3.16 0.60402 0.726 3.775 1.079-0.80801 2.496 1.603 1.643 2.157 2.157 0.85501 0.793-0.048996 3.426 1.617 2.157 1.373-3.52 0.479-6.499 0-9.168-0.554-3.089-1.108-6.924-2.157-9.167-0.556-1.19-2.062-1.854-2.696-3.236-0.47101-1.026 0.81999-2.243-1.078-1.618 0.61198 12.181-9.193 23.585 1.618 29.66zm49.074-21.571c-15.771 7.777-30.959 16.139-40.446 30.2 3.067-1.397 4.371-5.855 7.55-8.628 2.44-2.129 6.97-4.462 10.786-6.472 5.284-2.782 10.768-6.091 15.639-4.854-1.652 1.943-6.6 0.59101-7.55 3.236 5.165-0.986 10.304-3.213 14.561-3.236 9.21-0.049999 10.617 8.105 16.179 13.482 4.39-3.767 4.312-11.665 1.079-16.718 0.83-1.147 1.202-2.752 2.696-3.235-1.479-0.011-1.281-2.544-0.539-3.236-1.211-0.767-3.554-0.401-3.775-2.157-0.108-2.768 0.46602-6.218-2.157-6.471-0.89401 0.545-0.58601 2.29-1.078 3.235-1.42 0.558-1.816 2.139-3.236 2.697-0.39099 1.227-3.732-0.497-3.235 1.618 5.869-1.811 9.65 0.69 9.168 4.854-0.44699 3.857-6.143 4.462-7.55 5.932-0.90501-3.536 2.948-3.796 4.854-5.932-0.26799-1.89-2.034-2.281-2.157-4.314-4.116 0.393-7.219 1.802-10.789-9.99e-4zm-24.267 17.796c-5.6 1.411-7.869 6.152-11.864 9.168 4.67-2.339 7.441-6.58 11.864-9.168zm-12.404 12.404c6.779-4.909 13.714-10.612 22.11-14.021 3.452-1.402 7.25-1.157 10.246-3.775-13.523 1.124-25.639 8.09-32.356 17.796v8e-6zm-152.62-35.054c-0.153 2.266 3.398 5.131 3.236 9.168 2.422 2.894 5.047 2.256 10.246 2.157 0.424-4.27-6.728-5.444-9.167-8.628 5.973-0.914 8.53 6.312 10.786 4.314-1.654-5.995-7.376-8.595-15.101-7.011zm66.332 2.697c2.542 0.205 3.382-1.292 4.854-2.157-2.59-0.253-3.541 1.133-4.854 2.157zm20.492 3.235c2.192-0.58199 2.681-4.771 0.54-5.393-0.577 2.607-0.169 2.992-0.54 5.393zm-25.346 14.561c8.303-1.376 18.16 3.051 20.493-5.393 1.508-1.255 3.042-1.286 4.314-1.618-1.945-2.189-5.386-2.883-6.472-5.932-0.167-2.145 1.246-2.709 1.079-4.854-11.778-5.135-19.141 8.144-19.414 17.797v1.1e-5zm-36.671-8.089c3.226-1.519 3.635-4.635 3.775-8.089-1.027-0.23101-1.355-1.162-2.696-1.079-0.384 3.032-1.62 5.211-1.079 9.168zm39.907-7.55c-10.114 5.208-14.654 21.646-8.629 33.975 4.768 3.681 10.156 6.742 18.875 6.471 1.435-1.082 2.692-2.34 3.775-3.775 0.054001-4.304-0.091995-6.271-0.53899-9.167 2.164-2.69 3.557-6.151 3.236-11.325-1.826-0.867-3.435 0.83301-5.932 1.079-5.247 0.515-12.086-1.03-16.179-0.54 0.768-6.962 2.655-12.804 6.471-16.718h-1.078v1e-5zm16.178 2.157c1.611 2.703 4.801 3.828 7.011 5.932-0.256-1.694 0.672-2.204 1.618-2.696 5.433-0.399 6.53 3.537 11.325 3.775-0.26099-1.699 1.655-1.221 1.079-3.236-1.247-1.45-4.739-0.654-4.854-3.235-3.412 0.447-7.516-1.045-11.864 0.539-0.87199-1.285-1.484-2.831-3.236-3.236-0.281 0.798-0.798 1.359-1.079 2.157zm22.65-1.079c-0.525 0.949-2.469 3.235-1.079 4.314 0.469-0.79 0.808-1.709 2.157-1.618 0.931 1.372-0.821 2.091 1.079 2.157 3.223 0.23 5.509 0.781 8.089 2.697 3.366-0.709 4.946-0.053001 8.089-0.54-1.226-7.334-10.812-9.19-18.335-7.01zm-46.378 2.697c2.144-0.373 2.662-2.372 4.314-3.236-2.033 0.483-3.542 1.491-4.314 3.236zm88.982 18.335v1.079c1.751 0.312 2.509-0.367 3.775-0.539 0.96098-1.45-2.376-1.042-0.54002-1.618 1.733-0.474 0.739 1.778 2.157 1.618 8.424-3.262 9.55-13.82 14.021-21.032-5.926 1.999-12.17 2.078-15.639 6.471-1.135 1.437-0.449 3.569-2.696 4.314 0.32501 3.97-4.783 7.483-2.157 10.247 1.363-4.686 4.149-5.98 7.011-9.168 3.085-3.439 4.025-7.57 8.628-7.55-4.848 5.397-10.12 10.373-14.56 16.178zm-112.71-19.414c-3.31 0.638-1.351 2.597 0 0zm18.875 10.786c0.922-2.325 3.752-5.581 3.236-7.55-0.922 2.325-4.062 5.271-3.236 7.55zm35.593-1.079c2.164 0.388 4.782-3.012 5.932-5.393-1.292-0.326-2.46-0.775-4.314-0.539-0.77 1.747-1.357 3.677-1.618 5.932v1.1e-5zm127.81-4.853c-3.454-0.62299-1.183 1.647 0 0zm2.696 0.539c5.444-0.663 12.37 1.971 15.101 0.54-3.853-1.071-11.08-1.638-15.101-0.54zm-201.69 3.236c-0.288-2.049-2.102-2.572-3.775-3.236 0.094 2.243 1.432 3.242 3.775 3.236zm72.803 2.157c-1.525 2.352-0.94999 6.54-3.775 8.089-0.872-5.127 4.205-9.557-1.618-10.786-1.1 0.158-1.058 1.459-2.157 1.618 1.59 7.303-0.748 11.611 0 17.796 3.573-0.382 1.837-6.072 5.932-5.932-0.266 1.891-0.804 3.51-0.539 5.932 4.485-0.00901 3.034-5.954 5.932-7.55 0.14099-1.579-1.219-1.657-1.079-3.236 0.931-1.226 2.231-2.083 2.157-4.314-1.864-0.735-2.542 2.423-3.775 0.54001 1.954-2.354 1.632-5.684 4.854-5.393 3.917 0.354 2.268 4.952 3.236 8.089 0.829 2.688 3.071 2.928 3.236 4.854 7.083-0.611 9.945 2.998 13.482 5.932 1.164-3.759 1.406-6.5 1.618-10.247-2.217-1.679-2.29-2.229-1.618-5.393-2.089-2.225-3.799-4.83-7.55-5.393-2.568-0.052-2.558 2.475-4.854 2.697-4.159 0.923-4.612-1.86-7.55-2.157-1.942 1.508-4.45 2.568-5.932 4.854zm123.5-4.315c-4.035-0.645-1.738 1.651 0 0zm4.314 0c-0.78299 0.29501-2.787-0.63-2.696 0.54001 0.783-0.29501 2.787 0.63 2.696-0.54001zm6.472 0.54c-6.054-2.223-5.189 2.254 0 0zm16.718 2.157c-0.14699-2.208-4.652-2.873-5.933-2.157 1.926 0.771 3.477 1.917 5.933 2.157zm-210.86-0.539c-3.609 1.244-7.224 2.483-9.707 4.854 7.485 4.689 13.337-3.095 20.493-3.775-1.577-3.097-8.116-1.231-11.325-2.696-0.022999 0.74101 0.254 1.183 0.539 1.617zm196.84 0.539c7.292 0.978 11.52 5.019 17.257 7.55 6.197 9.396 14.927 23.207 9.707 38.828 3.804 3.871-1.631 8.938-2.696 12.943 2.752 0.57399 4.241-2.921 5.933-1.618 0.11798 7.26-5.396 7.811-9.168 10.786-1.209 0.953-1.784 2.552-2.696 3.235-0.94499 0.709-3.683 0.097-3.236 2.157 4.122 1.15 4.841-5.516 10.247-4.854 0.25998-2.048 2.625-2.206 3.774-3.774 0.918-1.253 1.089-3.948 2.157-5.933 0.20599-0.38201 1.367-0.458 1.618-1.079 1.031-2.557 0.90802-6.125 1.617-9.167 0.427-1.83 1.468-3.299 1.618-4.854 0.53-5.498-1.166-11.013-2.157-16.179-0.72198-3.764-1.174-4.719-1.078-7.011-2.017-3.915-5.098-6.767-6.472-11.325-8.358-2.695-15.7-12.485-27.504-11.864-0.666 1.747 1.745 0.414 1.079 2.159zm-203.85 0.539c1.378-0.24 2.479-0.756 3.236-1.618-1.645-0.026001-2.746 0.49001-3.236 1.618zm188.21-0.539c3.063-0.35199 7.54 0.709 9.707-0.53899-2.513 0.027-8.278-1.946-9.707 0.53899zm-117.02 1.618c0.15-1.25 1.44-1.24 2.157-0.53999 0.50401-2.567-4.46-0.312-2.157 0.53999zm133.2-1.079c-1.01-0.11999-3.574-1.391-4.314 0 1.888-0.757 3.452 1.513 4.314 0zm-217.33 3.236c2.358 1.075 6.945 0.263 8.089-1.618-2.469 0.767-6.293 0.17901-8.089 1.618zm41.525-0.539v1.079c1.327 0.83799 1.586-1.832 0.54-1.618-0.031998 0.32799-0.081001 0.638-0.54 0.53899zm184.44 1.617c0.375-1.504-2.684-2.281-3.236-1.078 1.699-0.26101 1.222 1.655 3.236 1.078zm-96.532 11.865c3.668-1.815 2.543-5.984 4.854-9.707-2.165 0.063-3.412 3.072-2.157 4.854-2.73-0.21401-2.166 2.867-2.697 4.853zm-87.903-8.089h1.079v-1.079h-1.079v1.079zm69.028 6.471c1.02 3.855 0.80399 8.654 0.53999 12.404-0.126 1.78-1.784 4.051 0 5.393 1.18-7.85 3.738-18.521-2.157-25.346-1.626 3.15 0.88401 4.775 1.617 7.549zm123.5-4.854c0-2-4.354-2.445-4.854-2.157 2.003 0.33499 2.017 2.657 4.854 2.157zm-220.57 38.289c-0.281-2.046-0.67-4.394-2.157-6.471-1.745-0.667-0.412 1.745-2.157 1.079-1.831-7.673-6.981-12.935-11.325-19.415-0.716-1.321-2.006 0.59301-2.157-0.53899-1.849-3.582-3.152-6.693-5.393-9.168-0.834-0.92099-2.442-2.589-3.775-2.696 3.514 6.117 6.181 13.046 7.55 20.493 0.693 3.772-1.378 7.969 0 11.864-0.835 1.702-2.964 4.309-2.157 5.932 2.272 1.603 4.813-0.35701 7.011-0.53901-0.583 7.576 5.744 17.885 0.54 25.347 3.71 2.612 7.348-1.23 10.246-2.697 3.736 2.585 8.119 9.062 14.561 9.708 5.931 0.594 12.605-2.385 15.1-7.551-1.339-1.275-3.174-0.00499-4.854 0 0.402-1.755 2.674-1.64 3.775-2.696-4.524-0.151-6.766 5.1-11.864 5.933-4.864 0.794-9.557-1.011-11.864-2.696-2.258-1.649-5.417-5.881-5.393-7.551 4.931 3.698 7.223 10.035 17.257 8.629-0.773-3.541-3.611-5.018-3.775-9.168 5.131 0.98999 8.44-2.082 10.786-5.393 0.807-0.091988 1.99 0.192 2.157-0.53999-4.335-1.597-9.252-2.612-12.943-4.854-4.121-8.103-8.787-15.661-15.1-21.571 0.584 4.164 3.902 6.604 5.932 9.707 1.916 2.93 2.982 6.397 5.393 9.168 0.487 2.389 0.546 5.207 1.618 7.011-1.344 1.172-0.78 4.253-2.696 4.853-2.571-1.3-8.25-1.617-11.864-4.314-0.847-3.653-4.082-7.773-2.696-11.864 2.301 5.785 3.545 12.631 10.244 14.021 1.802-3.887-3.091-8.331-2.157-11.325 1.132 2.186 3.015 8.484 5.393 5.932-2.2-3.161-4.52-6.699-6.471-8.628 0.713-0.005989 0.493-0.945 1.079-1.079 0.95-0.154 1.669 2.539 2.156 1.078zm29.661-32.896c-0.929-4.922-1.586 0.38101 0 0zm27.503 8.089c1.155-1.221 1.591-4.733-0.54-5.393 0.055 3.72-0.56599 8.116 1.618 9.707 6.287-0.00499 8.678-3.905 9.167-9.707-3.572 0.383-2.728 5.182-5.393 6.471-1.909-2.725 1.982-3.57 1.079-7.011-0.689-0.028999-0.747-0.69101-1.618-0.539-1.608 1.987-1.531 5.66-4.313 6.472zm54.468 0c1.782-0.396 3.854-3.31 2.696-4.854-0.56 1.958-1.6 3.434-2.696 4.854zm12.943-2.696c0.299-0.339 2.19-1.629 0.539-2.157 0.080002 0.718-2.192 1.628-0.539 2.157zm62.017 3.775c-4.874-1.554-3.45 1.683 0 0zm-21.571 27.503c-0.159 2.137 0.65799 3.296 1.617 4.314 0.756-1.025-0.291-3.7-1.617-4.314zm7.55-23.189c-5.087 3.736-9.211 16.491-5.933 24.807 1.673 4.243 7.271 5.28 8.09 9.168 3.188 1.305 5.767 3.222 10.246 3.235-0.715-3.419-3.022-5.247-3.235-9.168 5.354 0.64201 10.344 2.74 14.561-0.53899 0.054993-4.909-0.25-9.457-1.079-13.482-1.744-0.667-0.412 1.745-2.156 1.079-0.732-5.557-3.87-10.368-3.236-15.64-5.005-3.95-13.828-1.979-17.258 0.53999zm18.875 0c-1.375 4.173 1.886 8.106 2.157 12.403 3.657-0.55099-0.047989-5.965 1.078-7.01 1.836 1.759 1.579 5.611 4.854 5.932 1.444-2.51-2.78-6.438-2.157-8.089 1.994 1.074 2.259 6.713 5.933 4.314-1.831-2.303-4.189-4.08-5.393-7.011-3.245 0.177-5.984-2.988-8.09-2.157 0.776 0.30199 1.316 0.84199 1.618 1.618zm-118.64 20.493c1.36-1.358 2.197-3.007 3.236-4.854 0.975-1.733 2.585-3.675 3.235-5.393 0.537-1.42-0.201-4.857 2.157-3.775 0.338-1.639-0.69-4.645 0.54-5.393-0.278 2.975 1.914 3.479 2.696 5.393-0.931 0.32701 0.042 2.558-1.079 2.697-0.729-0.17001-1.03-0.76801-2.157-0.54 0.228 2.774-4.062 4.845-1.618 6.472-1.079 1.617-3.958 1.435-4.314 3.775-0.231 1.513 2.011-1.352 2.157 0.539-0.80801 1.925-2.699-0.57799-2.696 2.157 10.329 0.92998 14.891-17.634 5.932-23.189-0.385 9.554-10.18 11.787-8.089 22.111zm156.39-16.718c0.146-0.734-0.33398-2.105-0.539-1.079-0.14798 0.73498 0.33402 2.106 0.539 1.079zm-147.22 3.775h1.078v-1.079h-1.078v1.079zm147.76 3.775c0.569-0.56101 1.113-3.851 0-4.314-0.11899 1.01-1.391 3.574 0 4.314zm-31.817 22.111c-0.58101 1.453-4.959 1.721-4.854-0.539 3.553-0.618 6.34-2.253 7.011-4.314 1.733 0.60401 3.197 1.476 5.393 1.618-0.573-2.138-3.617-4.632-2.696-6.471 2.562 1.607 3.674 9.416 7.55 4.854-5.26-4.628-5.877-13.897-9.707-19.954-0.28801 1.87 0.801 5.115-1.079 5.393-1.701-0.104-1.533-3.701-3.235-2.157 2.011 5.821-0.073013 12.741 2.157 17.796-5.749 0.62701-9.718 1.455-15.101 0 0.47098 4.204 2.861 6.486 4.854 9.168 2.907-0.168 8.145 2.7 9.168-0.53899-4.224-0.27602-9.454-2.402-9.707-4.854 4.951 4.719 14.943 5.65 18.875-0.539-2.196-1.862-4.35-0.529-5.932 0.539-0.69699-0.426-5.193-1.431-3.775-0.539 0.54001-0.002998 0.64 0.435 1.078 0.538zm-190.91-18.875c-2.052-1.016-4.216-4.755-6.471-3.775 2.197 0.871 4.934 4.038 6.471 3.775zm36.672 0c1.709-0.893-1.581-4.797-0.53899-3.236 0.31 0.948-0.652 3.169 0.53899 3.236zm197.92-3.775c-0.036987 0.007004 0.03299 0.501 0 0.539-2.56 2.927 2.59-0.996 0-0.539zm-0.539 7.011c0.505-0.456 1.151-3.438 0-3.775 0.70999 1.671-1.598 2.991 0 3.775zm-76.039 1.078c-0.093002-1.525 0.464-3.7-1.079-3.775-0.90298 0.968-0.14098 3.311 1.079 3.775zm-142.37 3.775c-2.495-2.543-8.931-4.005-11.325-4.854 3.343 2.051 7.352 3.434 11.325 4.854zm58.782 0.539c0.826-1.07 3.968-0.86 1.618-2.157 2.517-0.899 5.373-1.458 6.472-3.775-4.404 1.168-7.749 3.396-11.325 5.393 2.336 1.035 3.34-1.996 4.314-0.53902-0.882-0.39299-2.346 1.071-1.079 1.078zm139.67-1.617c-0.405 2.733 2.061-1.158 2.157 0.53999-2.396 1.125-0.46599 3.394-3.235 4.314-2.211 0.054001-4.42 0.106-5.933-0.53899-1.46 2.135-2.356 4.834-5.932 4.854 0.03598 1.581 1.232 2.003 2.157 2.696 3.385-2.757 8.876-3.025 14.561-2.157 2.241-3.152 3.164-7.621 5.393-10.786-3.57 1.026-6.653 0.614-9.168 0.54 0.3-0.002998 0.612 0.435 0 0.538zm-219.49 1.617c0.02899-0.92799-0.41501-1.382-1.079-1.618-0.029009 0.928 0.415 1.383 1.079 1.618zm213.02 2.158c1.776-0.19999 2.694-1.26 3.774-2.157-1.471 0.39299-1.085-1.071-2.157-1.078-0.3 1.316-2.085 1.148-1.617 3.235zm-187.13-2.158c-1.016 0.18301-3.931-1.248-2.696 0 0.959-0.322 2.239 1.581 2.696 0zm28.582 3.776c-1.981 0.037003-5.226-0.974-6.472 1.078 7.294 0.756 14.706-0.517 18.875-1.618 1.672-0.44099 5.283 0.678 4.854-2.157-0.121-0.418-0.014999-1.063-0.539-1.079-3.592 3.074-10.001 3.651-16.718 3.776zm-8.09 1.078c0.034996-1.472-1.389-1.438-2.157-1.618-4.678-1.094-11.934-1.151-15.639-1.618 5.142 1.81 13.383 2.376 17.796 3.236zm-43.142-0.539c0.067001-1.35 1.029-1.688-0.54-2.157 0.092003 0.80698-0.192 1.99 0.54 2.157zm69.567-0.539c-3.454-0.623-1.184 1.647 0 0zm107.32 12.403c-1.915-2.724-5.234-2.474-7.55-4.314-2.712-2.155-3.533-5.827-7.011-7.011 2.011 6.618 7.774 9.483 14.561 11.325zm28.582-4.314c2.371 2.482 4.6 5.107 7.011 7.55 3.128-0.287 4.056-2.774 5.932-4.313 3.395-1.46 6.243-3.465 8.629-5.933 0.028015-0.92801-0.41498-1.382-1.079-1.618-4.36 5.036-16.87-1.404-20.493 4.314v1.5e-5zm-7.55 2.696c2.046 0.443 6.455-0.002998 6.471-3.235-2.574-1.291-5.091 1.589-6.471 3.235zm-9.707 3.775c-3.022-0.394-4.893-1.938-7.551-2.696-3.379 2.014-4.858 5.927-7.011 9.168 7.199 0.085999 16.86 4.286 18.875-3.236-1.519-1.246-3.083 0.681-4.313-1.078 2.937-1.593-2.056 0.315 0-2.158zm12.403 4.315c0.14101-1.657 1.17-2.426 1.617-3.775-1.27 0.013-1.587-0.92899-3.235-0.53899-1.491 3.776-0.10501 2.056 1.618 4.314zm4.315-1.079c0.11101-1.55-0.13699-2.739-1.079-3.235-0.71298 0.704-0.11697 2.854 1.079 3.235zm13.481 6.471c-5.317 7.078-6.228 27.39 5.394 28.043v-3.236c-1.774-0.742-3.619-1.414-5.394-2.156-5.041-10.2 1.446-19.617 5.394-26.965-4.055 0.44-3.521 5.467-5.933 7.55 0.38899-0.62 1.529-4.642 0.53899-3.236zm2.158 62.557c1.725-0.14999 3.093-4.287 1.079-4.854-0.85103 1.127-0.37402 3.581-1.079 4.854zm-2.697 1.618c1.35 0.066986 1.688 1.029 2.157-0.539-0.71797-0.70201-1.627-0.332-2.157 0.539zm-3.775 1.618c-0.104-1.544-3.178-2.893-4.313-1.618 1.29 0.687 1.985 1.969 4.313 1.618zm5.393 5.932c0.44601-2.095-0.257-5.813-2.157-3.774 1.521 0.73599 0.55798 2.311 2.157 3.774z" fill-rule="evenodd"/>
     <path d="m170.95 92.757c0.64299 0.454 6.483 0.334 7.011 2.697-2.852-0.385-5.168-1.306-7.011-2.697z" fill-rule="evenodd"/>
     <path d="m170.95 100.85c0.85399 4.218 1.881 7.202 4.313 10.785 5.519 0.773 7.979 4.604 10.786 8.09 2.785-2.014 0.673-8.94-1.618-10.786-1.534 0.72 0.416 2.398 0.539 3.235-0.899-0.375-3.219-3.959-4.313-5.932-0.983-1.354-3.49-1.184-3.236-3.775 1.11-1.118 2.735 0.002007 2.696 1.618 6.934 0.69 11.179 12.864 6.472 18.336-1.996 0.378-1.345-1.891-2.157-2.696-1.555 1.321-1.811 3.941-2.157 6.471h-2.696c-0.87601-5.056-6.062-5.802-7.011-10.785-0.055008-1.384-2.01-0.867-2.696-1.618 3.092-1.749 0.66699-9.788 0-12.942-1.392 0.045998-0.567 2.309-2.696 1.617 0.704-1.727-0.098999-2.392 0-5.393 2.387 1.904 5.736 1.072 8.089 3.775-0.52 1.18-3.142-1.7-4.315 0zm9.167 21.032c0.699-3.755-1.32-4.792-1.078-8.09-3.18-0.416-5.321-1.869-5.933-4.854-0.92799-0.028999-1.382 0.415-1.617 1.079 2.519 4.311 3.915 9.747 8.628 11.865zm2.157-3.236c-0.039993-0.939 0.121-1.677 0.53999-2.157-0.33099-0.157-2.076-1.341-2.157 0 0.86801 0.097-0.879 2.563 1.617 2.157z" fill-rule="evenodd"/>
    </g>
   </switch>
  </symbol>
 </defs>
 <g fill-rule="evenodd" stroke="#000" stroke-width="5">
  <path d="m143.92 543.77l142.48 241.74c45.962-72.009 151.68-118.3 211.42-102.87 73.539-56.578 156.27-46.291 179.25-25.717l-165.46-241.74s-114.9-36.004-160.87 41.148c-82.731-41.148-183.85 25.717-206.83 87.439z"/>
  <path d="m153.53 517.88l124.1 210.88c50.558-102.87 151.68-149.16 202.23-82.295 78.135-123.44 170.06 0 179.25 0l-165.46-252.03s-110.31-56.579-156.27 20.573c-45.962-41.147-156.27 10.287-183.85 102.87z" fill="#fff"/>
  <path d="m340.45 416.04l142.48 216.03c18.385 30.861-18.385 87.439 59.75 123.44" fill="none"/>
 </g>
 <use transform="rotate(47.874 157.62 438.41) matrix(.44188 0 0 .44589 69.918 334.47)" x="100.624853" y="140.396631" xlink:href="#a"/>
 <use transform="rotate(80.248 127.91 503.64) matrix(.44188 0 0 .44589 69.918 334.47)" x="33.392187" y="286.68984" xlink:href="#a"/>
 <use transform="rotate(195.17 138.91 574.64) matrix(.44188 0 0 .44589 69.918 334.47)" x="58.286536" y="445.924755" xlink:href="#a"/>
 <use transform="rotate(227.66 654.41 641.64) matrix(.46816 0 0 .49261 41.975 288.54)" x="1210.340556" y="624.064003" xlink:href="#a"/>
 <use transform="rotate(-31.453 267.24 397.06) matrix(.6143 0 0 .50356 156.29 227.58)" x="42.780868" y="240.837453" xlink:href="#b"/>
 <use transform="rotate(47.246 163.9 684.64) matrix(.6143 0 0 .50356 156.29 227.58)" x="-125.428064" y="811.935823" xlink:href="#b"/>
 <use transform="rotate(159.73 560.48 718.18) matrix(.6143 0 0 -.54043 147.62 848.85)" x="534.271028" y="146.076424" xlink:href="#b"/>
</svg>
